<svg id="Camada_1" data-name="Camada 1" xmlns="http://www.w3.org/2000/svg" viewBox="0 0 25 25"><defs><style>.cls-1{fill:#00beca;}</style></defs><path class="cls-1" d="M11.88.27h1.67l.87.11a11.86,11.86,0,0,1,5.82,2.51,11.7,11.7,0,0,1,4.36,7.49c.06.33.1.66.14,1V13c0,.06,0,.12,0,.18-.11.64-.16,1.3-.33,1.92a11.71,11.71,0,0,1-5.68,7.41A11.84,11.84,0,0,1,11.12,24a12,12,0,0,1-4-1.28.6.6,0,0,0-.37,0L1.87,24.25l-1.61.51.07-.24,2-5.82A.71.71,0,0,0,2.25,18a11.65,11.65,0,0,1-1.4-7.71A11.23,11.23,0,0,1,3,5.23,11.91,11.91,0,0,1,10.87.41ZM3.29,21.78l.23-.06,3.34-1.07a.61.61,0,0,1,.57.07,9.92,9.92,0,0,0,6.76,1.39,9.79,9.79,0,0,0,6.3-3.53,9.54,9.54,0,0,0,2.13-8.33A9.78,9.78,0,0,0,16.57,3a9.62,9.62,0,0,0-5.17-.68A9.83,9.83,0,0,0,7.85,3.43,10,10,0,0,0,4,7.25a9.76,9.76,0,0,0-1,7.49,9.63,9.63,0,0,0,1.48,3.18.36.36,0,0,1,0,.35c-.16.42-.29.84-.43,1.26Z"/><path class="cls-1" d="M9,6.79c.54-.15.77.19,1,.65.24.63.5,1.26.78,1.87a.86.86,0,0,1-.1,1c-.19.24-.38.49-.59.71a.45.45,0,0,0-.08.6,8,8,0,0,0,3.2,3.07c.27.14.54.26.82.38a.45.45,0,0,0,.65-.15l.83-1c.25-.31.38-.36.74-.19l2.35,1.11a.41.41,0,0,1,.25.42,2.26,2.26,0,0,1-1.14,2.11,3.17,3.17,0,0,1-2.61.37,13.64,13.64,0,0,1-3.2-1.28,12.29,12.29,0,0,1-3.46-3.28,8.35,8.35,0,0,1-1.35-2.35,3.38,3.38,0,0,1,.77-3.62A1.23,1.23,0,0,1,9,6.79Z"/></svg>