<svg width="151" height="46" viewBox="0 0 151 46" fill="none" xmlns="http://www.w3.org/2000/svg">
<g clip-path="url(#clip0)">
<path d="M43.1521 46C42.0224 46 40.8927 45.9639 39.763 45.8846C25.7387 44.918 13.1608 38.2456 5.23839 27.5841C4.58359 26.7041 4.77067 25.4634 5.64134 24.807C6.51201 24.1505 7.75685 24.3309 8.41165 25.2109C15.6361 34.9418 27.1634 41.0372 40.0292 41.9244C53.3843 42.8405 66.3652 37.8272 74.7409 28.5074C75.4748 27.6923 76.7268 27.6274 77.5327 28.3632C78.3458 29.0989 78.4106 30.3541 77.6767 31.162C69.2146 40.5899 56.4928 46 43.1521 46Z" fill="white"/>
<path d="M2.2234 31.1476C2.02192 31.1476 1.82045 31.061 1.68373 30.9023C-0.791561 28.053 -0.496541 23.7177 2.34573 21.2363C5.18799 18.7549 9.51256 19.0507 11.9879 21.9C12.2469 22.2029 12.2181 22.6574 11.9159 22.917C11.6137 23.1767 11.1604 23.1479 10.9013 22.8449C8.94411 20.6015 5.53338 20.3635 3.29555 22.3183C2.20901 23.2705 1.55421 24.5833 1.46067 26.026C1.35993 27.4687 1.82764 28.8609 2.77746 29.9501C3.03651 30.2531 3.00772 30.7075 2.70551 30.9672C2.5544 31.0899 2.3889 31.1476 2.2234 31.1476Z" fill="white"/>
<path d="M31.7902 31.2558H23.9038C21.3278 31.2558 19.2339 29.3154 19.2339 26.9349V7.8915C19.2339 6.79506 20.1189 5.90781 21.2127 5.90781C22.3064 5.90781 23.1915 6.79506 23.1915 7.8915V26.9349C23.1915 27.0215 23.4433 27.2884 23.9038 27.2884H31.7902C32.884 27.2884 33.769 28.1756 33.769 29.2721C33.769 30.3685 32.884 31.2558 31.7902 31.2558Z" fill="white"/>
<path d="M30.6749 3.96739C30.5454 3.96739 30.4159 3.95296 30.2863 3.92411C30.164 3.90246 30.0417 3.85918 29.9194 3.80869C29.797 3.7582 29.6819 3.70049 29.574 3.62836C29.466 3.55622 29.3653 3.47687 29.2789 3.3831C29.1854 3.28932 29.0991 3.18834 29.0271 3.08013C28.9623 2.97193 28.8976 2.85652 28.8472 2.7411C28.7968 2.61848 28.7609 2.49585 28.7321 2.36601C28.7105 2.23616 28.6961 2.10632 28.6961 1.97648C28.6961 1.45711 28.9048 0.944961 29.2789 0.577077C29.3653 0.483302 29.466 0.403955 29.574 0.33182C29.6819 0.259686 29.797 0.194765 29.9194 0.151485C30.0417 0.100991 30.164 0.0577102 30.2863 0.0360699C30.5454 -0.014424 30.8044 -0.014424 31.0635 0.0360699C31.1858 0.0577102 31.3081 0.100991 31.4304 0.151485C31.5528 0.194765 31.6679 0.259686 31.7758 0.33182C31.8838 0.403955 31.9845 0.483302 32.0709 0.577077C32.445 0.944961 32.6537 1.45711 32.6537 1.97648C32.6537 2.49585 32.445 3.008 32.0709 3.3831C31.9845 3.47687 31.8838 3.55622 31.7758 3.62836C31.6679 3.70049 31.5528 3.7582 31.4304 3.80869C31.3081 3.85918 31.1858 3.90246 31.0635 3.92411C30.9339 3.95296 30.8044 3.96739 30.6749 3.96739Z" fill="white"/>
<path d="M30.6749 23.0108C29.5812 23.0108 28.6961 22.1236 28.6961 21.0271V7.8987C28.6961 6.80226 29.5812 5.91501 30.6749 5.91501C31.7686 5.91501 32.6537 6.80226 32.6537 7.8987V21.0271C32.6537 22.1236 31.7686 23.0108 30.6749 23.0108Z" fill="white"/>
<path d="M45.3324 28.4569C44.584 28.4569 43.8645 28.0313 43.5335 27.3028L36.6904 12.4215C36.2299 11.4261 36.6688 10.2503 37.6618 9.7886C38.6548 9.32694 39.8277 9.76696 40.2882 10.7624L47.1313 25.6437C47.5918 26.6392 47.1529 27.8149 46.1599 28.2766C45.8936 28.3992 45.613 28.4569 45.3324 28.4569Z" fill="white"/>
<path d="M45.3324 28.4569C45.0589 28.4569 44.7711 28.3992 44.5049 28.2766C43.5119 27.815 43.0801 26.6392 43.5335 25.6437L50.3765 10.7624C50.837 9.76696 52.0099 9.33416 53.0029 9.7886C53.9959 10.2503 54.4276 11.4261 53.9743 12.4215L47.1313 27.3028C46.7931 28.0314 46.0807 28.4569 45.3324 28.4569Z" fill="white"/>
<path d="M67.0991 26.8844C61.2923 26.8844 56.5719 22.1524 56.5719 16.3312C56.5719 10.51 61.2994 5.77795 67.0991 5.77795C72.8988 5.77795 77.6263 10.51 77.6263 16.3312C77.6263 17.4276 76.7412 18.3149 75.6475 18.3149H65.5017C64.408 18.3149 63.5229 17.4276 63.5229 16.3312C63.5229 15.2348 64.408 14.3475 65.5017 14.3475H73.3665C72.5246 11.6857 70.0349 9.74534 67.0991 9.74534C63.4725 9.74534 60.5295 12.7028 60.5295 16.3312C60.5295 19.9668 63.4797 22.917 67.0991 22.917C68.1929 22.917 69.0779 23.8043 69.0779 24.9007C69.0779 25.9972 68.1929 26.8844 67.0991 26.8844Z" fill="white"/>
<path d="M86.7072 26.091C85.6782 26.026 84.8291 25.9395 84.1599 25.8241L84.3326 24.7493C85.8941 24.8647 87.6858 24.9224 89.7149 24.9224C91.0605 24.9224 92.1111 24.7132 92.8666 24.2876C93.6221 23.862 94.0899 23.0685 94.2698 21.8928L94.464 20.5511C94.5144 20.2769 94.536 20.0173 94.536 19.772C94.536 19.0579 94.3201 18.5385 93.8884 18.2067C93.4566 17.8749 92.7731 17.7162 91.8304 17.7162H89.4487C87.0957 17.7162 85.9156 16.7424 85.9156 14.7875C85.9156 14.4918 85.9372 14.1744 85.9876 13.8354L86.2035 12.2484C86.4625 10.6398 87.0454 9.52173 87.9592 8.90859C88.8658 8.28824 90.1251 7.97806 91.7297 7.97806C92.3485 7.97806 93.212 8.02134 94.3201 8.11511C95.4283 8.20167 96.3061 8.30988 96.9393 8.41808L96.7954 9.49288C96.0471 9.42796 95.1836 9.37746 94.205 9.34861C93.2264 9.31975 92.3773 9.29811 91.6649 9.29811C90.3985 9.29811 89.4487 9.51452 88.8083 9.94732C88.1679 10.3801 87.7577 11.188 87.5778 12.3782L87.362 13.7199C87.326 14.1095 87.3116 14.3692 87.3116 14.499C87.3116 15.1843 87.5059 15.6604 87.88 15.9417C88.2614 16.2158 88.873 16.3601 89.7149 16.3601H92.147C94.6655 16.3601 95.9176 17.3916 95.9176 19.4618C95.9176 19.7576 95.896 20.0894 95.8456 20.4645L95.5794 22.1019C95.3491 23.6312 94.7375 24.6988 93.7445 25.2975C92.7443 25.8962 91.3771 26.1992 89.643 26.1992C88.7147 26.192 87.7361 26.1559 86.7072 26.091Z" fill="white"/>
<path d="M99.3643 25.1027C98.6447 24.3814 98.2849 23.2849 98.2849 21.8206C98.2849 21.1209 98.3641 20.2986 98.5296 19.3536C98.8678 17.1102 99.5585 15.4728 100.588 14.4341C101.616 13.4025 103.142 12.8832 105.15 12.8832C106.042 12.8832 106.934 12.9986 107.826 13.2366C108.719 13.4747 109.424 13.8281 109.942 14.297L108.093 26.0332H106.927L106.905 24.6194C106.466 24.944 105.776 25.2831 104.826 25.6437C103.876 26.0044 103.005 26.1775 102.207 26.1775C101.026 26.1919 100.084 25.8313 99.3643 25.1027ZM104.775 24.6699C105.423 24.4535 106.178 24.1289 107.042 23.7033L108.431 14.8957C108.093 14.701 107.618 14.5206 107.02 14.3475C106.423 14.1744 105.761 14.0878 105.049 14.0878C103.926 14.0878 103.034 14.2826 102.358 14.6577C101.681 15.04 101.163 15.6243 100.789 16.4178C100.415 17.204 100.113 18.2716 99.8895 19.5989C99.76 20.5438 99.6953 21.2147 99.6953 21.6258C99.6953 22.7511 99.9615 23.5879 100.487 24.1505C101.012 24.7132 101.739 24.9945 102.667 24.9945C103.423 24.9945 104.128 24.8863 104.775 24.6699Z" fill="white"/>
<path d="M113.014 25.3985C112.439 24.8719 112.151 24.1361 112.151 23.1912C112.151 22.7872 112.18 22.34 112.252 21.8495L113.662 13.0419H115.072L113.684 21.8278C113.633 22.0731 113.612 22.3616 113.612 22.7079C113.612 24.1866 114.453 24.9296 116.144 24.9296C117.008 24.9296 117.792 24.8214 118.505 24.5978C119.217 24.3742 120.03 24.0279 120.937 23.5374L122.613 13.0491H124.024L121.951 26.0549H120.807L120.786 24.5906C119.908 25.1244 119.073 25.5283 118.267 25.7952C117.461 26.0621 116.555 26.1992 115.526 26.1992C114.432 26.1919 113.59 25.925 113.014 25.3985ZM121.865 7.3577H123.153L119.577 10.6542H118.699L121.865 7.3577Z" fill="white"/>
<path d="M126.931 25.0811C126.233 24.3381 125.88 23.2849 125.88 21.9216C125.88 21.0271 125.959 20.1471 126.125 19.2887C126.398 17.8604 126.758 16.6847 127.197 15.7758C127.636 14.8669 128.291 14.16 129.154 13.655C130.025 13.1501 131.176 12.8976 132.622 12.8976C134.004 12.8976 135.206 13.1573 136.227 13.6767L137.228 7.42984H138.638L135.695 26.0477H134.529V24.6339C133.846 25.0739 133.09 25.4418 132.255 25.7447C131.421 26.0477 130.572 26.1992 129.708 26.1992C128.55 26.192 127.621 25.8241 126.931 25.0811ZM132.392 24.6555C133.112 24.4247 133.867 24.1073 134.644 23.7033L136.033 14.8957C135.529 14.6216 135.011 14.4124 134.479 14.2826C133.946 14.1528 133.328 14.0878 132.63 14.0878C131.507 14.0878 130.615 14.2826 129.953 14.6577C129.291 15.04 128.773 15.6171 128.42 16.3889C128.06 17.1607 127.765 18.2211 127.521 19.5772C127.377 20.3563 127.305 21.0488 127.305 21.6547C127.305 22.8089 127.571 23.6528 128.096 24.1938C128.622 24.7348 129.312 25.0017 130.154 25.0017C130.917 24.9945 131.665 24.8863 132.392 24.6555Z" fill="white"/>
<path d="M140.926 25.0811C140.084 24.3381 139.66 23.22 139.66 21.7268C139.66 20.8179 139.739 19.873 139.904 18.8992C140.214 16.9011 140.89 15.3862 141.934 14.3619C142.984 13.3376 144.488 12.8255 146.452 12.8255C147.913 12.8255 149.036 13.0924 149.82 13.6334C150.604 14.1744 151 15.0544 151 16.2951C151 19.1084 148.928 20.515 144.79 20.515C144.027 20.515 143.315 20.4789 142.646 20.4068C141.977 20.3346 141.48 20.2409 141.135 20.1255C141.07 20.6304 141.041 21.193 141.041 21.8062C141.041 22.9459 141.379 23.7754 142.049 24.2948C142.718 24.8142 143.826 25.0739 145.373 25.0739H149.244L149.1 25.9539C147.525 26.1198 146.15 26.1992 144.963 26.1992C143.114 26.1919 141.768 25.8241 140.926 25.0811ZM148.237 18.8847C149.172 18.4231 149.633 17.6008 149.633 16.4322C149.633 15.5521 149.367 14.9246 148.827 14.5423C148.294 14.16 147.467 13.9724 146.344 13.9724C144.725 13.9724 143.531 14.4124 142.768 15.2925C142.005 16.1725 141.495 17.5142 141.236 19.3176C142.193 19.4979 143.186 19.5844 144.207 19.5844C145.963 19.5772 147.301 19.3464 148.237 18.8847Z" fill="white"/>
</g>
<defs>
<clipPath id="clip0">
<rect width="151" height="46" fill="white"/>
</clipPath>
</defs>
</svg>
