<svg width="359" height="78" viewBox="0 0 359 78" fill="none" xmlns="http://www.w3.org/2000/svg">
<path d="M7.35239 7.7865C11.005 7.7865 13.8093 8.43865 15.7652 9.74294C17.7211 11.0235 18.6991 13.1341 18.6991 16.0747C18.6991 19.039 17.7094 21.1851 15.7299 22.5132C13.7504 23.8174 10.9225 24.4696 7.24635 24.4696H5.51429V32.7222H0V8.42679C1.20183 8.18965 2.47436 8.02365 3.81759 7.92879C5.16081 7.83393 6.33908 7.7865 7.35239 7.7865ZM7.70587 12.5175C7.30526 12.5175 6.90465 12.5294 6.50404 12.5531C6.12699 12.5768 5.79708 12.6005 5.51429 12.6242V19.7386H7.24635C9.15514 19.7386 10.5926 19.4777 11.5588 18.956C12.525 18.4343 13.0081 17.462 13.0081 16.0391C13.0081 15.3514 12.8785 14.7823 12.6192 14.3317C12.3836 13.8811 12.0301 13.5254 11.5588 13.2645C11.1111 12.98 10.5573 12.7902 9.89745 12.6954C9.23762 12.5768 8.50709 12.5175 7.70587 12.5175Z" fill="white"/>
<path d="M29.818 33.0779C28.2862 33.0542 27.0373 32.8882 26.0711 32.5799C25.1285 32.2716 24.3744 31.8448 23.8088 31.2993C23.2668 30.7302 22.8898 30.0543 22.6777 29.2718C22.4892 28.4655 22.3949 27.5643 22.3949 26.5683V5.97235L27.6618 5.11863V25.5012C27.6618 25.9755 27.6971 26.4023 27.7678 26.7817C27.8385 27.1612 27.9681 27.4813 28.1566 27.7422C28.3687 28.003 28.6633 28.2165 29.0403 28.3825C29.4174 28.5485 29.924 28.6552 30.5603 28.7026L29.818 33.0779Z" fill="white"/>
<path d="M41.202 29.0228C41.7204 29.0228 42.2153 29.0109 42.6866 28.9872C43.1579 28.9635 43.535 28.9279 43.8177 28.8805V24.8609C43.6057 24.8135 43.2875 24.766 42.8634 24.7186C42.4392 24.6712 42.0503 24.6475 41.6969 24.6475C41.202 24.6475 40.7307 24.683 40.2829 24.7542C39.8588 24.8016 39.4817 24.9083 39.1518 25.0743C38.8219 25.2403 38.5627 25.4656 38.3742 25.7502C38.1856 26.0347 38.0914 26.3905 38.0914 26.8173C38.0914 27.6473 38.3624 28.2283 38.9044 28.5603C39.4699 28.8686 40.2358 29.0228 41.202 29.0228ZM40.7778 13.5135C42.3331 13.5135 43.6292 13.6914 44.6661 14.0471C45.703 14.4028 46.5278 14.9127 47.1405 15.5767C47.7767 16.2407 48.2245 17.047 48.4837 17.9956C48.7429 18.9441 48.8725 19.9994 48.8725 21.1614V32.1886C48.1184 32.3546 47.0698 32.5443 45.7265 32.7578C44.3833 32.9949 42.7573 33.1135 40.8485 33.1135C39.6467 33.1135 38.5509 33.0068 37.5611 32.7934C36.595 32.5799 35.7584 32.2361 35.0514 31.7618C34.3445 31.2638 33.8025 30.6235 33.4254 29.8409C33.0484 29.0583 32.8599 28.0979 32.8599 26.9596C32.8599 25.8687 33.0719 24.9439 33.4961 24.185C33.9439 23.4262 34.533 22.8214 35.2635 22.3709C35.9941 21.9203 36.8306 21.6002 37.7732 21.4104C38.7159 21.197 39.6938 21.0903 40.7071 21.0903C41.3905 21.0903 41.9914 21.1259 42.5099 21.197C43.0519 21.2444 43.4878 21.3156 43.8177 21.4104V20.9124C43.8177 20.0113 43.5467 19.288 43.0047 18.7426C42.4627 18.1971 41.5201 17.9244 40.1769 17.9244C39.2814 17.9244 38.3977 17.9956 37.5258 18.1378C36.6539 18.2564 35.8998 18.4343 35.2635 18.6714L34.5919 14.4028C34.8983 14.308 35.2753 14.2131 35.7231 14.1183C36.1944 13.9997 36.701 13.9048 37.243 13.8337C37.785 13.7388 38.3506 13.6677 38.9397 13.6203C39.5524 13.5491 40.1651 13.5135 40.7778 13.5135Z" fill="white"/>
<path d="M53.6351 14.6518C54.5306 14.391 55.6853 14.1538 57.0992 13.9404C58.5131 13.7032 59.9978 13.5847 61.5531 13.5847C63.132 13.5847 64.4398 13.7981 65.4767 14.225C66.5371 14.6281 67.3737 15.2091 67.9864 15.968C68.5991 16.7268 69.0351 17.628 69.2943 18.6714C69.5535 19.7149 69.6831 20.8769 69.6831 22.1574V32.7222H64.4163V22.7977C64.4163 21.0903 64.1924 19.8809 63.7447 19.1694C63.2969 18.458 62.4603 18.1023 61.2349 18.1023C60.8579 18.1023 60.4573 18.126 60.0331 18.1734C59.6089 18.1971 59.2319 18.2327 58.902 18.2801V32.7222H53.6351V14.6518Z" fill="white"/>
<path d="M91.8416 23.3313C91.8416 24.8016 91.6296 26.1533 91.2054 27.3865C90.7812 28.5959 90.1685 29.6393 89.3673 30.5168C88.5661 31.3705 87.5999 32.0345 86.4687 32.5088C85.3612 32.9831 84.1122 33.2202 82.7218 33.2202C81.3551 33.2202 80.1061 32.9831 78.975 32.5088C77.8674 32.0345 76.913 31.3705 76.1118 30.5168C75.3105 29.6393 74.6861 28.5959 74.2383 27.3865C73.7906 26.1533 73.5667 24.8016 73.5667 23.3313C73.5667 21.861 73.7906 20.5211 74.2383 19.3117C74.7096 18.1023 75.3459 17.0707 76.1471 16.217C76.9719 15.3633 77.9381 14.6993 79.0457 14.225C80.1768 13.7507 81.4022 13.5135 82.7218 13.5135C84.0651 13.5135 85.2905 13.7507 86.398 14.225C87.5292 14.6993 88.4954 15.3633 89.2966 16.217C90.0978 17.0707 90.7223 18.1023 91.17 19.3117C91.6178 20.5211 91.8416 21.861 91.8416 23.3313ZM86.4687 23.3313C86.4687 21.695 86.1388 20.4144 85.479 19.4896C84.8427 18.541 83.9237 18.0667 82.7218 18.0667C81.52 18.0667 80.5892 18.541 79.9294 19.4896C79.2695 20.4144 78.9396 21.695 78.9396 23.3313C78.9396 24.9676 79.2695 26.2719 79.9294 27.2442C80.5892 28.1928 81.52 28.667 82.7218 28.667C83.9237 28.667 84.8427 28.1928 85.479 27.2442C86.1388 26.2719 86.4687 24.9676 86.4687 23.3313Z" fill="white"/>
<path d="M112.813 1.27077H115.88L109.025 30.0899H122.87L122.284 32.7222H105.372L112.813 1.27077Z" fill="white"/>
<path d="M132.369 9.25843H135.301L129.663 32.7222H126.732L132.369 9.25843ZM133.542 2.40538C133.542 1.61871 133.753 1.02872 134.173 0.635383C134.624 0.211795 135.105 0 135.617 0C136.218 0 136.684 0.196667 137.015 0.589999C137.345 0.953074 137.511 1.43717 137.511 2.0423C137.511 2.76845 137.27 3.32819 136.789 3.72153C136.308 4.11486 135.827 4.31152 135.346 4.31152C134.745 4.31152 134.294 4.14511 133.993 3.8123C133.692 3.44922 133.542 2.98025 133.542 2.40538Z" fill="white"/>
<path d="M142.488 32.7222C141.736 29.3638 141.059 25.6725 140.458 21.6484C139.857 17.6243 139.526 13.4943 139.466 9.25843H142.352C142.382 10.8923 142.457 12.6169 142.578 14.4323C142.698 16.2476 142.863 18.063 143.074 19.8784C143.284 21.6938 143.525 23.4486 143.795 25.143C144.096 26.8374 144.427 28.3502 144.788 29.6814C145.69 28.4712 146.667 27.034 147.719 25.3699C148.801 23.6756 149.854 21.9056 150.876 20.0599C151.898 18.184 152.83 16.3233 153.672 14.4776C154.544 12.6018 155.236 10.862 155.747 9.25843H158.633C158.032 11.1646 157.25 13.1615 156.288 15.2492C155.326 17.3369 154.258 19.4094 153.086 21.4669C151.913 23.5243 150.65 25.5212 149.298 27.4576C147.975 29.394 146.667 31.1489 145.374 32.7222H142.488Z" fill="white"/>
<path d="M178.48 14.75C178.48 16.4443 178.059 17.821 177.217 18.8799C176.406 19.9389 175.248 20.7861 173.745 21.4215C172.272 22.0266 170.483 22.4653 168.378 22.7376C166.303 23.0099 163.988 23.2066 161.433 23.3276V24.2807C161.433 25.1581 161.523 25.975 161.703 26.7315C161.884 27.4879 162.214 28.1535 162.695 28.7284C163.177 29.273 163.838 29.7117 164.68 30.0445C165.552 30.3773 166.664 30.5438 168.017 30.5438C169.07 30.5438 170.122 30.3925 171.174 30.0899C172.257 29.7873 173.279 29.3335 174.241 28.7284L174.557 31.4514C173.534 32.0263 172.407 32.465 171.174 32.7676C169.941 33.1004 168.694 33.2668 167.431 33.2668C165.777 33.2668 164.379 33.055 163.237 32.6314C162.124 32.2079 161.207 31.6179 160.486 30.8614C159.794 30.105 159.298 29.1973 158.997 28.1384C158.697 27.0794 158.546 25.9145 158.546 24.6438C158.546 22.7074 158.832 20.7861 159.403 18.8799C160.005 16.9738 160.876 15.2643 162.019 13.7515C163.162 12.2387 164.56 11.0284 166.213 10.1207C167.897 9.18279 169.806 8.71382 171.941 8.71382C174.045 8.71382 175.654 9.27356 176.766 10.393C177.909 11.4823 178.48 12.9346 178.48 14.75ZM171.67 11.3915C170.468 11.3915 169.34 11.6487 168.288 12.163C167.235 12.6471 166.288 13.3128 165.447 14.16C164.605 15.0071 163.868 15.9905 163.237 17.1099C162.635 18.2294 162.184 19.4094 161.884 20.6499C164.439 20.5894 166.589 20.423 168.333 20.1507C170.077 19.8784 171.475 19.5002 172.527 19.0161C173.61 18.532 174.376 17.9571 174.827 17.2915C175.278 16.5956 175.504 15.8089 175.504 14.9315C175.504 13.7515 175.143 12.8741 174.421 12.2992C173.73 11.6941 172.813 11.3915 171.67 11.3915Z" fill="white"/>
<path d="M197.724 1.86076C198.867 1.61871 200.084 1.42205 201.377 1.27077C202.7 1.08923 204.038 0.998457 205.391 0.998457C208.969 0.998457 211.6 1.67922 213.283 3.04076C214.967 4.40229 215.809 6.36895 215.809 8.94074C215.809 10.6351 215.463 12.1933 214.772 13.6153C214.11 15.0374 213.133 16.2628 211.84 17.2915C210.577 18.3202 208.999 19.122 207.105 19.6969C205.211 20.2717 203.046 20.5592 200.611 20.5592H196.371L193.44 32.7222H190.373L197.724 1.86076ZM201.016 17.8815C204.684 17.8815 207.526 17.1251 209.54 15.6123C211.555 14.0994 212.562 12.0118 212.562 9.3492C212.562 7.38254 211.93 5.94537 210.668 5.03768C209.405 4.12999 207.421 3.67614 204.715 3.67614C203.933 3.67614 203.151 3.72153 202.369 3.8123C201.618 3.87281 200.926 3.93332 200.295 3.99383L196.958 17.8815H201.016Z" fill="white"/>
<path d="M221.195 10.3023C222.338 9.84843 223.585 9.47023 224.938 9.16766C226.321 8.8651 227.674 8.71382 228.997 8.71382C229.689 8.71382 230.35 8.7592 230.982 8.84997C231.613 8.94074 232.214 9.09202 232.786 9.30382L232.019 11.9815C230.846 11.6184 229.644 11.4369 228.411 11.4369C227.629 11.4369 226.848 11.4974 226.066 11.6184C225.284 11.7395 224.502 11.921 223.721 12.163L218.805 32.7222H215.873L221.195 10.3023Z" fill="white"/>
<path d="M253 14.75C253 16.4443 252.579 17.821 251.737 18.8799C250.925 19.9389 249.768 20.7861 248.264 21.4215C246.791 22.0266 245.002 22.4653 242.897 22.7376C240.823 23.0099 238.508 23.2066 235.952 23.3276V24.2807C235.952 25.1581 236.042 25.975 236.223 26.7315C236.403 27.4879 236.734 28.1535 237.215 28.7284C237.696 29.273 238.357 29.7117 239.199 30.0445C240.071 30.3773 241.184 30.5438 242.537 30.5438C243.589 30.5438 244.641 30.3925 245.694 30.0899C246.776 29.7873 247.798 29.3335 248.76 28.7284L249.076 31.4514C248.054 32.0263 246.926 32.465 245.694 32.7676C244.461 33.1004 243.213 33.2668 241.95 33.2668C240.297 33.2668 238.899 33.055 237.756 32.6314C236.644 32.2079 235.727 31.6179 235.005 30.8614C234.313 30.105 233.817 29.1973 233.517 28.1384C233.216 27.0794 233.066 25.9145 233.066 24.6438C233.066 22.7074 233.351 20.7861 233.923 18.8799C234.524 16.9738 235.396 15.2643 236.538 13.7515C237.681 12.2387 239.079 11.0284 240.733 10.1207C242.416 9.18279 244.326 8.71382 246.46 8.71382C248.565 8.71382 250.173 9.27356 251.286 10.393C252.428 11.4823 253 12.9346 253 14.75ZM246.19 11.3915C244.987 11.3915 243.859 11.6487 242.807 12.163C241.755 12.6471 240.808 13.3128 239.966 14.16C239.124 15.0071 238.387 15.9905 237.756 17.1099C237.155 18.2294 236.704 19.4094 236.403 20.6499C238.959 20.5894 241.108 20.423 242.852 20.1507C244.596 19.8784 245.994 19.5002 247.047 19.0161C248.129 18.532 248.896 17.9571 249.347 17.2915C249.798 16.5956 250.023 15.8089 250.023 14.9315C250.023 13.7515 249.662 12.8741 248.941 12.2992C248.249 11.6941 247.332 11.3915 246.19 11.3915Z" fill="white"/>
<path d="M259.777 10.0754C260.228 9.92407 260.739 9.77279 261.311 9.62151C261.882 9.47023 262.483 9.33407 263.115 9.21305C263.746 9.09202 264.392 9.00126 265.054 8.94074C265.715 8.84997 266.347 8.80459 266.948 8.80459C268.211 8.80459 269.353 8.98613 270.375 9.3492C271.428 9.68202 272.3 10.3023 272.991 11.21C274.525 10.3023 275.863 9.68202 277.005 9.3492C278.178 8.98613 279.32 8.80459 280.433 8.80459C281.455 8.80459 282.402 8.92561 283.274 9.16766C284.176 9.37946 284.958 9.75766 285.619 10.3023C286.28 10.8469 286.807 11.5882 287.198 12.5261C287.588 13.4641 287.784 14.6592 287.784 16.1115C287.784 16.8982 287.724 17.7151 287.603 18.5623C287.483 19.3792 287.318 20.2112 287.107 21.0584L284.311 32.7222H281.38L283.86 22.2838C284.101 21.2853 284.326 20.2717 284.537 19.243C284.747 18.2143 284.852 17.231 284.852 16.293C284.852 15.3551 284.732 14.5835 284.492 13.9784C284.251 13.343 283.905 12.8438 283.454 12.4807C283.033 12.1177 282.537 11.8756 281.966 11.7546C281.395 11.6033 280.778 11.5277 280.117 11.5277C279.486 11.5277 278.659 11.6487 277.636 11.8907C276.644 12.1025 275.442 12.6623 274.029 13.57C274.209 14.3566 274.299 15.2038 274.299 16.1115C274.299 16.8982 274.239 17.7151 274.119 18.5623C273.998 19.3792 273.833 20.2112 273.623 21.0584L270.826 32.7222H267.895L270.375 22.2838C270.616 21.2853 270.842 20.2717 271.052 19.243C271.262 18.2143 271.368 17.231 271.368 16.293C271.368 15.3551 271.247 14.5835 271.007 13.9784C270.766 13.343 270.421 12.8438 269.97 12.4807C269.549 12.1177 269.053 11.8756 268.481 11.7546C267.91 11.6033 267.294 11.5277 266.632 11.5277C265.941 11.5277 265.204 11.5882 264.422 11.7092C263.641 11.8302 262.919 11.9815 262.258 12.163L257.342 32.7222H254.41L259.777 10.0754Z" fill="white"/>
<path d="M297.087 9.25843H300.019L294.381 32.7222H291.45L297.087 9.25843ZM298.26 2.40538C298.26 1.61871 298.47 1.02872 298.891 0.635383C299.342 0.211795 299.823 0 300.334 0C300.936 0 301.402 0.196667 301.732 0.589999C302.063 0.953074 302.229 1.43717 302.229 2.0423C302.229 2.76845 301.988 3.32819 301.507 3.72153C301.026 4.11486 300.545 4.31152 300.064 4.31152C299.462 4.31152 299.012 4.14511 298.711 3.8123C298.41 3.44922 298.26 2.98025 298.26 2.40538Z" fill="white"/>
<path d="M309.505 33.2668C308.213 33.2668 307.13 33.1004 306.258 32.7676C305.386 32.4348 304.695 31.9809 304.184 31.4061C303.673 30.8009 303.297 30.105 303.056 29.3184C302.846 28.5015 302.741 27.624 302.741 26.6861C302.741 25.8086 302.816 24.8858 302.966 23.9176C303.116 22.9192 303.312 21.9207 303.552 20.9222L306.348 9.25843H309.28L306.799 19.6061C306.559 20.6651 306.288 21.7845 305.988 22.9645C305.717 24.1143 305.582 25.2186 305.582 26.2776C305.582 26.8827 305.642 27.4425 305.762 27.9568C305.912 28.4712 306.153 28.925 306.484 29.3184C306.814 29.7117 307.25 30.0143 307.792 30.2261C308.333 30.4379 309.024 30.5438 309.866 30.5438C311.309 30.5438 312.572 30.2563 313.655 29.6814C314.767 29.1066 315.804 28.2745 316.766 27.1853C316.766 26.3684 316.887 25.4304 317.127 24.3715C317.368 23.3125 317.593 22.3594 317.804 21.5122L320.825 9.25843H323.757L320.194 23.7815C320.014 24.5379 319.863 25.2489 319.743 25.9145C319.623 26.5802 319.563 27.2156 319.563 27.8207C319.563 28.6376 319.638 29.4091 319.788 30.1353C319.938 30.8614 320.209 31.6632 320.6 32.5407L317.578 32.9945C317.398 32.6314 317.232 32.223 317.082 31.7691C316.962 31.285 316.872 30.8009 316.811 30.3168C315.759 31.3455 314.632 32.102 313.429 32.5861C312.256 33.0399 310.949 33.2668 309.505 33.2668Z" fill="white"/>
<path d="M330.993 10.0754C331.444 9.92407 331.956 9.77279 332.527 9.62151C333.098 9.47023 333.699 9.33407 334.331 9.21305C334.962 9.09202 335.609 9.00126 336.27 8.94074C336.931 8.84997 337.563 8.80459 338.164 8.80459C339.427 8.80459 340.569 8.98613 341.592 9.3492C342.644 9.68202 343.516 10.3023 344.207 11.21C345.741 10.3023 347.079 9.68202 348.221 9.3492C349.394 8.98613 350.536 8.80459 351.649 8.80459C352.671 8.80459 353.618 8.92561 354.49 9.16766C355.392 9.37946 356.174 9.75766 356.835 10.3023C357.497 10.8469 358.023 11.5882 358.414 12.5261C358.805 13.4641 359 14.6592 359 16.1115C359 16.8982 358.94 17.7151 358.82 18.5623C358.699 19.3792 358.534 20.2112 358.324 21.0584L355.527 32.7222H352.596L355.076 22.2838C355.317 21.2853 355.542 20.2717 355.753 19.243C355.963 18.2143 356.069 17.231 356.069 16.293C356.069 15.3551 355.948 14.5835 355.708 13.9784C355.467 13.343 355.122 12.8438 354.671 12.4807C354.25 12.1177 353.753 11.8756 353.182 11.7546C352.611 11.6033 351.995 11.5277 351.333 11.5277C350.702 11.5277 349.875 11.6487 348.853 11.8907C347.861 12.1025 346.658 12.6623 345.245 13.57C345.425 14.3566 345.515 15.2038 345.515 16.1115C345.515 16.8982 345.455 17.7151 345.335 18.5623C345.215 19.3792 345.049 20.2112 344.839 21.0584L342.043 32.7222H339.111L341.592 22.2838C341.832 21.2853 342.058 20.2717 342.268 19.243C342.479 18.2143 342.584 17.231 342.584 16.293C342.584 15.3551 342.464 14.5835 342.223 13.9784C341.983 13.343 341.637 12.8438 341.186 12.4807C340.765 12.1177 340.269 11.8756 339.698 11.7546C339.126 11.6033 338.51 11.5277 337.848 11.5277C337.157 11.5277 336.42 11.5882 335.639 11.7092C334.857 11.8302 334.135 11.9815 333.474 12.163L328.558 32.7222H325.627L330.993 10.0754Z" fill="white"/>
<path fill-rule="evenodd" clip-rule="evenodd" d="M108.103 77.8727C106.401 77.9717 104.69 78.013 102.971 77.9965C81.7236 77.7806 62.1472 68.8698 49.2751 53.5493C49.0014 53.2242 48.7947 52.8471 48.6668 52.4401C48.539 52.033 48.4927 51.6043 48.5306 51.1789C48.5686 50.7535 48.69 50.34 48.8877 49.9627C49.0855 49.5855 49.3557 49.252 49.6824 48.9818C50.3459 48.4283 51.1972 48.16 52.0538 48.2345C52.9104 48.309 53.704 48.7205 54.2645 49.3806C65.9148 63.2492 83.695 71.3144 103.045 71.5165C123.138 71.7255 142.158 63.1296 153.922 48.513C154.469 47.8401 155.254 47.4107 156.109 47.3167C156.965 47.2226 157.823 47.4714 158.499 48.0098C158.831 48.273 159.108 48.6007 159.314 48.9739C159.519 49.347 159.649 49.7579 159.695 50.1825C159.742 50.6071 159.704 51.0368 159.584 51.4464C159.464 51.856 159.265 52.2372 158.997 52.5676C147.002 67.4551 128.258 76.6999 108.103 77.8727ZM45.2428 58.9692C45.0886 58.9789 44.9341 58.9553 44.7896 58.8998C44.6452 58.8444 44.5141 58.7583 44.4051 58.6474C43.4634 57.6896 42.7198 56.5511 42.2179 55.2987C41.716 54.0462 41.4659 52.705 41.4823 51.3534C41.4986 50.0019 41.781 48.6672 42.3129 47.4276C42.8449 46.1879 43.6157 45.0682 44.5802 44.1339C46.5449 42.2269 49.1687 41.1746 51.89 41.2023C54.6113 41.2301 57.2137 42.3357 59.14 44.2824C59.2395 44.3831 59.3181 44.503 59.3712 44.6349C59.4243 44.7668 59.4508 44.9082 59.4492 45.0506C59.4475 45.1931 59.4178 45.3338 59.3616 45.4644C59.3055 45.595 59.2241 45.713 59.1223 45.8113C58.9152 46.012 58.6388 46.1228 58.3522 46.12C58.0655 46.1172 57.7913 46.001 57.5881 45.7962C56.0679 44.2596 54.014 43.3869 51.8662 43.3648C49.7185 43.3427 47.6475 44.173 46.0967 45.6779C45.3356 46.4155 44.7274 47.2995 44.3078 48.2781C43.8881 49.2566 43.6655 50.3101 43.6528 51.3769C43.6402 52.4437 43.8378 53.5023 44.2341 54.4908C44.6305 55.4793 45.2175 56.3778 45.961 57.1337C46.0603 57.2344 46.1388 57.3543 46.1918 57.4862C46.2448 57.6181 46.2713 57.7595 46.2696 57.9019C46.268 58.0443 46.2383 58.1849 46.1822 58.3155C46.1262 58.4462 46.045 58.5641 45.9433 58.6625C45.7538 58.8475 45.5043 58.9565 45.2414 58.9692H45.2428Z" fill="white"/>
</svg>
