<svg xmlns="http://www.w3.org/2000/svg" width="16" height="16" viewBox="0 0 16 16">
  <defs>
    <style>
      .cls-1 {
        fill: #00beca;
        fill-rule: evenodd;
      }
    </style>
  </defs>
  <path id="Forma_9_copiar_4" data-name="Forma 9 copiar 4" class="cls-1" d="M5.919,15.99a0.7,0.7,0,0,1-.7-0.7V11.153a0.341,0.341,0,0,0-.343-0.34H0.7a0.7,0.7,0,0,1-.7-0.7V5.975a0.7,0.7,0,0,1,.7-0.7H4.875a0.341,0.341,0,0,0,.343-0.34V0.8a0.7,0.7,0,0,1,.7-0.7h4.174a0.7,0.7,0,0,1,.7.7V4.94a0.341,0.341,0,0,0,.342.34h4.174a0.7,0.7,0,0,1,.7.7v4.142a0.7,0.7,0,0,1-.7.7H11.137a0.341,0.341,0,0,0-.342.34v4.142a0.7,0.7,0,0,1-.7.7H5.919ZM1.745,6.671a0.341,0.341,0,0,0-.343.34V9.082a0.341,0.341,0,0,0,.343.34H5.919a0.7,0.7,0,0,1,.7.7v4.142a0.341,0.341,0,0,0,.343.34H9.05a0.341,0.341,0,0,0,.343-0.34V10.117a0.7,0.7,0,0,1,.7-0.7h4.174a0.341,0.341,0,0,0,.342-0.34V7.011a0.341,0.341,0,0,0-.342-0.34H10.093a0.7,0.7,0,0,1-.7-0.7V1.833a0.341,0.341,0,0,0-.343-0.34H6.962a0.341,0.341,0,0,0-.343.34V5.975a0.7,0.7,0,0,1-.7.7H1.745Z"/>
</svg>
