<svg xmlns="http://www.w3.org/2000/svg" width="843" height="588" viewBox="0 0 843 588">
  <defs>
    <style>
      .cls-1 {
        fill: #6c0cc6;
        fill-rule: evenodd;
      }
    </style>
  </defs>
  <path id="Forma_11" data-name="Forma 11" class="cls-1" d="M839.911,510.115a7.778,7.778,0,0,0-8.295-12.972C601.134,601.59,440.124,577.1,345.638,538.162q-7.72-3.181-15.023-6.538,5.6,1.035,11.16,1.89c64.459,9.913,123.636,1.3,175.889-25.606a262.437,262.437,0,0,0,51.013-34.5c41.072-35.37,71.656-83.178,85.452-135.569,19-72.164,6-152.629-34.785-215.245-25.174-38.651-61.136-70.612-104-92.43S425.473-1.929,379.391.449,287.606,17.889,247.223,44s-72.857,61.608-93.911,102.646c-23.3,45.414-32.791,97.275-27.446,149.975,5.332,52.576,24.955,101.406,56.756,141.231,1.534,2.128,14.009,19.041,38.525,40.954l0.423,0.377c-14.064-6.552-27.44-13.461-39.984-20.437-12.9-7.177-25.969-15-38.836-23.247C103.2,410.149,58.7,373.3,14.039,328.933a7.778,7.778,0,1,0-10.97,11.03c45.426,45.128,90.821,82.692,131.28,108.63,13.138,8.423,26.485,16.412,39.671,23.746,32.24,17.93,63.9,32.238,94.716,42.825a427.2,427.2,0,0,0,70.971,37.376c62.065,25.576,130.755,37.214,204.162,34.591,91.38-3.265,190.354-28.776,294.173-75.824A7.734,7.734,0,0,0,839.911,510.115ZM226.8,78.456c42.545-36.64,96.914-59.56,153.392-62.475,88.829-4.586,177.583,40.593,226.11,115.1,38.428,59,50.681,134.813,32.778,202.8-17.934,68.105-65.989,127.993-128.545,160.2-77.744,40.029-161.98,31.548-235.351,6.711-53.777-35.689-79.656-71.629-80-72.119l-0.275-.366c-61.442-76.818-72.593-187.157-27.749-274.563A250.873,250.873,0,0,1,226.8,78.456Z"/>
</svg>
