<svg id="Camada_1" data-name="Camada 1" xmlns="http://www.w3.org/2000/svg" viewBox="0 0 22 22"><defs><style>.cls-1{fill:#fff;}</style></defs><path class="cls-1" d="M11,0c1.62,0,3.23,0,4.85.13a6,6,0,0,1,5,2.62,6.07,6.07,0,0,1,1,2.94c.22,2.79.16,5.59.11,8.38A21.82,21.82,0,0,1,21.72,17,5.72,5.72,0,0,1,17,21.77a26.76,26.76,0,0,1-4.29.22C10.85,22,9,22,7.17,22A9.26,9.26,0,0,1,4,21.51,5.63,5.63,0,0,1,.28,17.25,14.91,14.91,0,0,1,0,13.85C0,11.63,0,9.4,0,7.17A9,9,0,0,1,.5,4,5.54,5.54,0,0,1,5,.28,25.06,25.06,0,0,1,8.13.06c.95,0,1.91,0,2.86,0Zm0,2.07V2c-.67,0-1.34,0-2,0a36.06,36.06,0,0,0-3.61.21,3.49,3.49,0,0,0-3,2.64,7.61,7.61,0,0,0-.28,2Q2,9.92,2,13a28.91,28.91,0,0,0,.2,3.61,3.49,3.49,0,0,0,2.65,3.05,8.05,8.05,0,0,0,2,.28Q9.89,20,13,20a27.07,27.07,0,0,0,3.6-.21,3.48,3.48,0,0,0,3.06-2.64,8.58,8.58,0,0,0,.28-1.95Q20,12.11,20,9a27.07,27.07,0,0,0-.21-3.6,3.49,3.49,0,0,0-2.64-3,7.89,7.89,0,0,0-1.93-.28C13.79,2.05,12.39,2.07,11,2.07Z"/><path class="cls-1" d="M5.35,11A5.64,5.64,0,1,1,11,16.65,5.62,5.62,0,0,1,5.35,11Zm2,.17a3.65,3.65,0,1,0,3.19-3.78A3.69,3.69,0,0,0,7.34,11.17Z"/><path class="cls-1" d="M18.17,5.17a1.33,1.33,0,0,1-2.66,0,1.33,1.33,0,1,1,2.66,0Z"/></svg>