<svg xmlns="http://www.w3.org/2000/svg" width="76" height="76" viewBox="0 0 76 76">
  <defs>
    <style>
      .cls-1 {
        fill: #fff;
        fill-rule: evenodd;
      }
    </style>
  </defs>
  <path id="Forma_8" data-name="Forma 8" class="cls-1" d="M9.781,74.008A3.811,3.811,0,0,1,6.01,70.167V5.831A3.811,3.811,0,0,1,9.781,1.99H41.362a3.811,3.811,0,0,1,3.771,3.841V70.167a3.811,3.811,0,0,1-3.771,3.841H9.781Zm0-68.931a0.747,0.747,0,0,0-.741.754V70.167a0.747,0.747,0,0,0,.741.754H41.355a0.747,0.747,0,0,0,.74-0.754L42.1,5.831A0.762,0.762,0,0,0,41.885,5.3a0.734,0.734,0,0,0-.523-0.221H9.781Zm5.252,55.9h0a1.529,1.529,0,0,1,1.515-1.544h0a1.529,1.529,0,0,1,1.515,1.544h0a1.53,1.53,0,0,1-1.515,1.544h0A1.53,1.53,0,0,1,15.033,60.976Zm18.046,0h0a1.53,1.53,0,0,1,1.515-1.544h0a1.53,1.53,0,0,1,1.515,1.544h0a1.53,1.53,0,0,1-1.515,1.544h0A1.53,1.53,0,0,1,33.079,60.976Zm-18.046-9.19h0a1.529,1.529,0,0,1,1.515-1.544h0a1.53,1.53,0,0,1,1.515,1.544h0a1.53,1.53,0,0,1-1.515,1.544h0A1.529,1.529,0,0,1,15.033,51.785Zm18.046,0h0a1.53,1.53,0,0,1,1.515-1.544h0a1.53,1.53,0,0,1,1.515,1.544h0a1.53,1.53,0,0,1-1.515,1.544h0A1.53,1.53,0,0,1,33.079,51.785ZM15.033,42.594h0a1.529,1.529,0,0,1,1.515-1.544h0a1.529,1.529,0,0,1,1.515,1.544h0a1.53,1.53,0,0,1-1.515,1.544h0A1.529,1.529,0,0,1,15.033,42.594Zm18.046,0h0a1.53,1.53,0,0,1,1.515-1.544h0a1.53,1.53,0,0,1,1.515,1.544h0a1.53,1.53,0,0,1-1.515,1.544h0A1.53,1.53,0,0,1,33.079,42.594ZM15.033,33.4h0a1.529,1.529,0,0,1,1.515-1.543h0A1.529,1.529,0,0,1,18.064,33.4h0a1.53,1.53,0,0,1-1.515,1.544h0A1.529,1.529,0,0,1,15.033,33.4Zm18.046,0h0a1.529,1.529,0,0,1,1.515-1.543h0A1.529,1.529,0,0,1,36.11,33.4h0a1.53,1.53,0,0,1-1.515,1.544h0A1.53,1.53,0,0,1,33.079,33.4ZM15.033,24.213h0a1.529,1.529,0,0,1,1.515-1.543h0a1.529,1.529,0,0,1,1.515,1.543h0a1.53,1.53,0,0,1-1.515,1.543h0A1.529,1.529,0,0,1,15.033,24.213Zm18.046,0h0a1.53,1.53,0,0,1,1.515-1.543h0a1.529,1.529,0,0,1,1.515,1.543h0a1.53,1.53,0,0,1-1.515,1.543h0A1.53,1.53,0,0,1,33.079,24.213ZM15.033,15.022h0a1.529,1.529,0,0,1,1.515-1.544h0a1.529,1.529,0,0,1,1.515,1.544h0a1.53,1.53,0,0,1-1.515,1.543h0A1.529,1.529,0,0,1,15.033,15.022Zm18.046,0h0a1.53,1.53,0,0,1,1.515-1.544h0a1.53,1.53,0,0,1,1.515,1.544h0a1.53,1.53,0,0,1-1.515,1.543h0A1.53,1.53,0,0,1,33.079,15.022Zm-7.507,49.8a1.532,1.532,0,0,1-1.515-1.544V12.724a1.516,1.516,0,1,1,3.031,0v50.55A1.532,1.532,0,0,1,25.571,64.817Zm34.006,9.191a9.51,9.51,0,0,1-9.41-9.585V39.148a9.412,9.412,0,1,1,18.821,0V64.423A9.51,9.51,0,0,1,59.577,74.008ZM53.938,53.329a0.747,0.747,0,0,0-.74.754v10.34a6.381,6.381,0,1,0,12.76,0V54.083a0.747,0.747,0,0,0-.74-0.754H53.938Zm5.639-20.679a6.447,6.447,0,0,0-6.38,6.5v10.34a0.747,0.747,0,0,0,.74.754H65.217a0.747,0.747,0,0,0,.74-0.754V39.148A6.447,6.447,0,0,0,59.577,32.649Z"/>
</svg>
