<svg xmlns="http://www.w3.org/2000/svg" width="76" height="76" viewBox="0 0 76 76">
  <defs>
    <style>
      .cls-1 {
        fill: #fff;
        fill-rule: evenodd;
      }
    </style>
  </defs>
  <path id="Forma_7" data-name="Forma 7" class="cls-1" d="M33.676,61.589a4,4,0,0,1-4-4V48.018a0.785,0.785,0,0,0-.785-0.785H19.319a4.005,4.005,0,0,1-4-4V33.66a4.005,4.005,0,0,1,4-4H28.89a0.785,0.785,0,0,0,.785-0.785V19.3a4.005,4.005,0,0,1,4-4h9.572a4.005,4.005,0,0,1,4,4v9.571a0.785,0.785,0,0,0,.785.785H57.6a4,4,0,0,1,4,4v9.572a4.005,4.005,0,0,1-4,4H48.033a0.785,0.785,0,0,0-.785.785v9.572a4,4,0,0,1-4,4H33.676ZM19.319,32.875a0.785,0.785,0,0,0-.785.785v9.572a0.785,0.785,0,0,0,.785.785H31.283a1.61,1.61,0,0,1,1.608,1.608V57.589a0.785,0.785,0,0,0,.785.785h9.572a0.786,0.786,0,0,0,.785-0.785V45.624a1.61,1.61,0,0,1,1.607-1.608H57.6a0.785,0.785,0,0,0,.785-0.785V33.66a0.785,0.785,0,0,0-.785-0.785H45.64a1.61,1.61,0,0,1-1.607-1.608V19.3a0.786,0.786,0,0,0-.785-0.786H33.676a0.786,0.786,0,0,0-.785.786V31.267a1.61,1.61,0,0,1-1.608,1.608H19.319ZM38.462,75.947a37.5,37.5,0,1,1,37.5-37.5A37.543,37.543,0,0,1,38.462,75.947Zm0-71.777A34.276,34.276,0,1,0,72.738,38.446,34.315,34.315,0,0,0,38.462,4.17Z"/>
</svg>
