<svg id="Camada_1" data-name="Camada 1" xmlns="http://www.w3.org/2000/svg" viewBox="0 0 22 22"><defs><style>.cls-1{fill:#fff;}</style></defs><path class="cls-1" d="M.12,11V1.51C.12.59.55.17,1.47.17H20.52a1.18,1.18,0,0,1,1.36,1.34v19a1.2,1.2,0,0,1-1.36,1.35H15.68c-.35,0-.46-.1-.46-.45,0-2.47,0-4.93,0-7.4,0-.38.12-.48.49-.47.65,0,1.3,0,1.95,0a.39.39,0,0,0,.45-.38c.11-.89.22-1.78.34-2.67.05-.31-.08-.4-.37-.4H15.62c-.3,0-.41-.1-.4-.39,0-.57,0-1.13,0-1.69,0-1.06.42-1.48,1.49-1.5h1.49c.29,0,.41-.08.41-.38,0-.77,0-1.55,0-2.32a.47.47,0,0,0-.29-.36,10.27,10.27,0,0,0-3.79.09,3.62,3.62,0,0,0-2.73,3.17,21.52,21.52,0,0,0-.09,2.9c0,.37-.1.5-.48.48-.65,0-1.3,0-2,0-.32,0-.47.09-.46.43q0,1.29,0,2.58c0,.33.13.44.45.44.68,0,1.36,0,2,0,.29,0,.39.08.39.38q0,3.76,0,7.52c0,.37-.16.41-.46.41H1.39A1.17,1.17,0,0,1,.12,20.57Z"/></svg>