<svg xmlns="http://www.w3.org/2000/svg" width="76" height="76" viewBox="0 0 76 76">
  <defs>
    <style>
      .cls-1 {
        fill: #fff;
        fill-rule: evenodd;
      }
    </style>
  </defs>
  <path id="Forma_5" data-name="Forma 5" class="cls-1" d="M6.483,74a6.43,6.43,0,1,1,0-12.86H40.423a3.2,3.2,0,1,0,0-6.393H25.877a6.461,6.461,0,0,1-6.477-6.43V44.388a0.792,0.792,0,0,0-.708-0.785A20.894,20.894,0,0,1,0,22.865V6.019A1.625,1.625,0,0,1,1.634,4.4H8.907a0.793,0.793,0,0,0,.8-0.79,1.629,1.629,0,0,1,3.257,0V8.426a1.629,1.629,0,0,1-3.257,0,0.793,0.793,0,0,0-.8-0.79H4.058a0.793,0.793,0,0,0-.8.79V22.865a17.767,17.767,0,0,0,35.533,0V8.426a0.793,0.793,0,0,0-.8-0.79H33.15a0.792,0.792,0,0,0-.8.79,1.629,1.629,0,0,1-3.258,0V3.612a1.629,1.629,0,0,1,3.258,0,0.792,0.792,0,0,0,.8.79h7.273a1.625,1.625,0,0,1,1.629,1.617V22.865A20.894,20.894,0,0,1,23.365,43.6a0.792,0.792,0,0,0-.708.785v3.928a3.212,3.212,0,0,0,3.22,3.2H40.423a6.43,6.43,0,1,1,0,12.86H6.483a3.2,3.2,0,1,0,0,6.393H57.394a3.212,3.212,0,0,0,3.22-3.2V30.085c0-.047,0-0.093.008-0.139A0.791,0.791,0,0,0,59.96,29.1a13.751,13.751,0,1,1,4.565,0,0.791,0.791,0,0,0-.661.842c0,0.046.007,0.093,0.007,0.139V67.569A6.461,6.461,0,0,1,57.394,74H6.483ZM62.243,5.229A10.417,10.417,0,1,0,72.736,15.646,10.467,10.467,0,0,0,62.243,5.229ZM60.615,15.644h0a1.623,1.623,0,0,1,1.629-1.617h0a1.623,1.623,0,0,1,1.629,1.617h0a1.623,1.623,0,0,1-1.629,1.617h0A1.623,1.623,0,0,1,60.615,15.644Z"/>
</svg>
