<svg xmlns="http://www.w3.org/2000/svg" width="76" height="76" viewBox="0 0 76 76">
  <defs>
    <style>
      .cls-1 {
        fill: #fff;
        fill-rule: evenodd;
      }
    </style>
  </defs>
  <path id="Forma_6" data-name="Forma 6" class="cls-1" d="M57.6,19.119a0.787,0.787,0,0,1,.225-0.47l7.7-7.734a1.616,1.616,0,0,0,0-2.274L58.372,1.46a1.594,1.594,0,0,0-2.263,0l-7.7,7.734a0.778,0.778,0,0,1-.468.226,8.814,8.814,0,0,0-7.734,7.77,0.786,0.786,0,0,1-.224.47L29.206,28.489a0.779,0.779,0,0,1-1.106,0l-0.7-.7a1.6,1.6,0,0,0-2.263,2.274l0.7,0.7a0.788,0.788,0,0,1,0,1.11l-5.463,5.488a1.612,1.612,0,0,0,0,2.274l7.147,7.181a1.6,1.6,0,0,0,2.263,0l5.462-5.488a0.779,0.779,0,0,1,1.106,0l0.7,0.7a1.595,1.595,0,0,0,2.263,0,1.615,1.615,0,0,0,0-2.273l-0.7-.7a0.788,0.788,0,0,1,0-1.111L49.395,27.114a0.783,0.783,0,0,1,.468-0.226,8.724,8.724,0,0,0,5.429-2.74,0.78,0.78,0,0,1,.571-0.249h0.044a0.781,0.781,0,0,1,.584.316,20,20,0,0,1-4.907,28.468,1.6,1.6,0,0,0-.188.151,0.779,0.779,0,0,1-.984.059,8.647,8.647,0,0,0-5.083-1.643H14.359a1.608,1.608,0,0,0,0,3.216H37.081a0.785,0.785,0,0,1,.676,1.179,8.8,8.8,0,0,0-1.176,4.393v2.393a0.784,0.784,0,0,1-.782.786H9.595a1.606,1.606,0,0,0-1.6,1.608V74.4a1.606,1.606,0,0,0,1.6,1.608H62.005a1.606,1.606,0,0,0,1.6-1.608V64.826a1.606,1.606,0,0,0-1.6-1.608H54.859a0.784,0.784,0,0,1-.782-0.786V60.04a8.727,8.727,0,0,0-.852-3.782,0.788,0.788,0,0,1,.266-0.989,23.218,23.218,0,0,0,4.233-34.612l-0.048-.048a0.788,0.788,0,0,1-.2-0.7C57.526,19.655,57.567,19.389,57.6,19.119ZM39.783,60.04a5.547,5.547,0,1,1,11.093,0v2.393a0.784,0.784,0,0,1-.782.786H40.565a0.784,0.784,0,0,1-.782-0.786V60.04Zm19.84,6.395a0.784,0.784,0,0,1,.782.786v4.787a0.784,0.784,0,0,1-.782.785H11.977a0.784,0.784,0,0,1-.782-0.785V67.22a0.784,0.784,0,0,1,.782-0.786H59.623ZM32.984,39.054l-3.778,3.8a0.779,0.779,0,0,1-1.106,0l-3.779-3.8a0.788,0.788,0,0,1,0-1.111l3.779-3.8a0.779,0.779,0,0,1,1.106,0l3.778,3.8A0.788,0.788,0,0,1,32.984,39.054ZM44.877,27.106L36.353,35.67a0.78,0.78,0,0,1-1.106,0l-3.779-3.8a0.788,0.788,0,0,1,0-1.11L39.993,22.2a0.765,0.765,0,0,1,.547-0.21,0.953,0.953,0,0,1,.11.006,0.831,0.831,0,0,1,.587.389l0.04,0.068q0.11,0.2.23,0.385l0.086,0.135c0.1,0.151.2,0.3,0.311,0.447l0.032,0.041c0.1,0.134.206,0.264,0.318,0.395l0.092,0.107a8.84,8.84,0,0,0,.778.781l0.108,0.095c0.127,0.109.258,0.216,0.389,0.317l0.044,0.035c0.143,0.108.292,0.21,0.447,0.313l0.129,0.083c0.126,0.079.253,0.157,0.391,0.235L44.7,25.863A0.788,0.788,0,0,1,44.877,27.106ZM48.9,23.727a5.573,5.573,0,1,1,5.546-5.572A5.566,5.566,0,0,1,48.9,23.727Zm8.357-9.391a0.8,0.8,0,0,1-.114-0.008,0.79,0.79,0,0,1-.577-0.4l-0.04-.067q-0.11-.2-0.229-0.385l-0.086-.135c-0.1-.152-0.2-0.3-0.315-0.453l-0.027-.035c-0.1-.134-0.207-0.264-0.318-0.394l-0.093-.108a8.85,8.85,0,0,0-.778-0.782l-0.109-.095c-0.127-.109-0.258-0.216-0.389-0.317L54.14,11.12C54,11.012,53.848,10.909,53.7,10.811l-0.137-.088c-0.125-.08-0.252-0.156-0.384-0.231L53.1,10.446A0.788,0.788,0,0,1,52.928,9.2l3.76-3.777a0.779,0.779,0,0,1,1.106,0l3.778,3.8a0.788,0.788,0,0,1,0,1.111l-3.76,3.777A0.777,0.777,0,0,1,57.26,14.336ZM48.9,16.546a1.608,1.608,0,1,0,1.6,1.609A1.6,1.6,0,0,0,48.9,16.546Z"/>
</svg>
