<svg xmlns="http://www.w3.org/2000/svg" width="168" height="50" viewBox="0 0 168 50">
  <defs>
    <style>
      .cls-1 {
        fill: #fff;
        fill-rule: evenodd;
      }
    </style>
  </defs>
  <path id="Forma_2" data-name="Forma 2" class="cls-1" d="M49.055,50q-1.89,0-3.792-.128C29.59,48.816,15.524,41.5,6.67,29.813a2.336,2.336,0,0,1,.493-3.306,2.431,2.431,0,0,1,3.364.485c8.016,10.583,20.8,17.2,35.065,18.167,14.821,1,29.211-4.45,38.5-14.581a2.436,2.436,0,0,1,3.4-.173,2.335,2.335,0,0,1,.176,3.337C78.193,44.068,63.975,50,49.055,50ZM3.465,33.585a0.806,0.806,0,0,1-.6-0.27A7.4,7.4,0,0,1,3.6,22.764a7.7,7.7,0,0,1,10.736.724,0.779,0.779,0,0,1-.078,1.112,0.813,0.813,0,0,1-1.131-.077,6.079,6.079,0,0,0-8.474-.572A5.839,5.839,0,0,0,4.07,32.28a0.779,0.779,0,0,1-.077,1.112A0.807,0.807,0,0,1,3.465,33.585ZM36.323,33.9H27.617a5.182,5.182,0,0,1-5.4-4.917V8.269a2.429,2.429,0,0,1,2.3-2.434,2.386,2.386,0,0,1,2.512,2.361V28.984a0.006,0.006,0,0,0,0,.006,0.957,0.957,0,0,0,.59.189H36.4a2.382,2.382,0,0,1,2.4,2.469A2.437,2.437,0,0,1,36.323,33.9ZM34.782,4.974A2.592,2.592,0,0,1,33,4.246a2.5,2.5,0,0,1-.741-1.753A2.475,2.475,0,0,1,33,.731,3.37,3.37,0,0,1,33.377.424,3.26,3.26,0,0,1,33.814.193,3.039,3.039,0,0,1,34.286.053a2.611,2.611,0,0,1,2.281.678,2.478,2.478,0,0,1,.741,1.762,2.313,2.313,0,0,1-.051.48,2.963,2.963,0,0,1-.143.463,2.7,2.7,0,0,1-.236.43,2.661,2.661,0,0,1-.311.38,2.848,2.848,0,0,1-.387.306,2.1,2.1,0,0,1-.43.224,2.386,2.386,0,0,1-.471.148A2.521,2.521,0,0,1,34.782,4.974ZM35.162,24.9a2.383,2.383,0,0,1-2.4-2.363V8.195a2.4,2.4,0,0,1,4.809,0V22.533A2.383,2.383,0,0,1,35.162,24.9ZM60.113,10.088a2.423,2.423,0,0,0-3.19,1.157l-5.44,11.592-5.44-11.592a2.421,2.421,0,0,0-3.19-1.157,2.347,2.347,0,0,0-1.177,3.135L49.3,29.469l0.012,0.023c0.008,0.016.016,0.031,0.024,0.047q0.036,0.071.077,0.139l0.032,0.052c0.031,0.049.063,0.1,0.1,0.142L49.562,29.9c0.043,0.057.089,0.111,0.137,0.163l0.026,0.026q0.061,0.064.127,0.124l0.04,0.035c0.052,0.046.106,0.089,0.161,0.13l0,0c0.059,0.043.121,0.082,0.184,0.119l0.041,0.023q0.085,0.048.174,0.089l0.02,0.01,0.007,0c0.07,0.032.142,0.059,0.216,0.084l0.057,0.018c0.064,0.02.128,0.038,0.194,0.053l0.036,0.009c0.069,0.014.139,0.025,0.209,0.033l0.066,0.007c0.071,0.006.142,0.011,0.214,0.011h0.016c0.072,0,.143,0,0.214-0.011l0.066-.007c0.07-.009.14-0.019,0.209-0.033l0.037-.009q0.1-.022.192-0.052l0.06-.019c0.072-.024.142-0.051,0.212-0.082l0.009,0,0.026-.014c0.055-.026.109-0.054,0.162-0.084l0.05-.029c0.061-.036.12-0.074,0.178-0.115l0.019-.014c0.05-.037.1-0.076,0.146-0.117l0.048-.042c0.04-.037.079-0.075,0.116-0.114l0.034-.035c0.046-.051.091-0.1,0.133-0.158l0.026-.037c0.032-.044.063-0.089,0.093-0.135l0.034-.055q0.04-.067.076-0.137l0.024-.047,0.012-.023L61.29,13.224A2.347,2.347,0,0,0,60.113,10.088ZM75.731,29.128a11.838,11.838,0,0,1-11.926-11.72,11.928,11.928,0,0,1,23.852,0,2.384,2.384,0,0,1-2.4,2.363h-11.3a2.363,2.363,0,1,1,0-4.726h8.482a7.136,7.136,0,0,0-13.817,2.363A7.064,7.064,0,0,0,75.731,24.4,2.363,2.363,0,1,1,75.731,29.128Zm20.655-.735a28.025,28.025,0,0,1-2.833-.293l0.189-1.172q2.6,0.187,5.992.187a7.352,7.352,0,0,0,3.511-.693A3.336,3.336,0,0,0,104.8,23.81l0.217-1.466a4.853,4.853,0,0,0,.082-0.852,1.983,1.983,0,0,0-.719-1.705,3.89,3.89,0,0,0-2.291-.533H99.435q-3.931,0-3.931-3.2a7.171,7.171,0,0,1,.082-1.039l0.244-1.732a5.126,5.126,0,0,1,1.952-3.65,7.5,7.5,0,0,1,4.2-1.012q1.031,0,2.888.146T107.786,9.1l-0.163,1.172q-1.248-.106-2.887-0.16c-1.095-.035-2.038-0.053-2.834-0.053a5.833,5.833,0,0,0-3.185.706,3.654,3.654,0,0,0-1.369,2.651L97.1,14.885q-0.055.639-.055,0.852a1.8,1.8,0,0,0,.637,1.572,3.593,3.593,0,0,0,2.047.453h2.711q4.2,0,4.2,3.383a8.429,8.429,0,0,1-.081,1.092l-0.3,1.785a4.565,4.565,0,0,1-2.046,3.49,8.974,8.974,0,0,1-4.568.986Q98.107,28.5,96.386,28.393Zm14.1-1.08a4.813,4.813,0,0,1-1.206-3.583,15.931,15.931,0,0,1,.27-2.691,9.376,9.376,0,0,1,2.291-5.369,6.969,6.969,0,0,1,5.084-1.691,11.886,11.886,0,0,1,2.982.386,5.6,5.6,0,0,1,2.359,1.159L120.2,28.34h-1.3l-0.026-1.545a10.072,10.072,0,0,1-2.318,1.119,8.478,8.478,0,0,1-2.915.586A4.31,4.31,0,0,1,110.483,27.313Zm6.032-.479a21.766,21.766,0,0,0,2.522-1.052l1.545-9.619a7.282,7.282,0,0,0-1.573-.6,8.126,8.126,0,0,0-2.2-.28,6.158,6.158,0,0,0-3,.627,4.2,4.2,0,0,0-1.749,1.918,13.483,13.483,0,0,0-1,3.477,18.025,18.025,0,0,0-.218,2.211,3.846,3.846,0,0,0,.882,2.759,3.2,3.2,0,0,0,2.426.919A7.448,7.448,0,0,0,116.515,26.834Zm9.176,0.8a3.078,3.078,0,0,1-.962-2.411,10.862,10.862,0,0,1,.109-1.465l1.572-9.618h1.573l-1.545,9.592a4.817,4.817,0,0,0-.082.959q0,2.424,2.82,2.424a9.071,9.071,0,0,0,2.629-.36,15.674,15.674,0,0,0,2.712-1.159l1.87-11.456h1.572l-2.3,14.2H134.38l-0.026-1.6a13.92,13.92,0,0,1-2.807,1.318,9.773,9.773,0,0,1-3.049.44A4.067,4.067,0,0,1,125.691,27.634Zm9.856-19.7h1.437L133,11.528h-0.977Zm5.64,19.356a4.775,4.775,0,0,1-1.167-3.45,15.21,15.21,0,0,1,.271-2.878,15.7,15.7,0,0,1,1.193-3.836,5.293,5.293,0,0,1,2.182-2.318,7.788,7.788,0,0,1,3.863-.826,8.9,8.9,0,0,1,4.014.852l1.111-6.82h1.572L150.945,28.34h-1.3V26.794a12.562,12.562,0,0,1-2.534,1.212,8.447,8.447,0,0,1-2.833.493A4.084,4.084,0,0,1,141.187,27.287Zm6.086-.466a15.827,15.827,0,0,0,2.507-1.039l1.545-9.619a7.168,7.168,0,0,0-1.734-.666,8.986,8.986,0,0,0-2.062-.213,6.083,6.083,0,0,0-2.982.627A4.108,4.108,0,0,0,142.84,17.8a14.569,14.569,0,0,0-1,3.477,12.22,12.22,0,0,0-.244,2.264,3.781,3.781,0,0,0,.881,2.771,3.1,3.1,0,0,0,2.292.88A8.461,8.461,0,0,0,147.273,26.821Zm9.5,0.466a4.571,4.571,0,0,1-1.41-3.664,18.453,18.453,0,0,1,.272-3.09,8.47,8.47,0,0,1,2.264-4.956,6.976,6.976,0,0,1,5.029-1.678,6.733,6.733,0,0,1,3.754.879,3.234,3.234,0,0,1,1.315,2.9q0,4.609-6.913,4.609a22.27,22.27,0,0,1-2.385-.12,8.747,8.747,0,0,1-1.681-.306,14.262,14.262,0,0,0-.108,1.838,3.189,3.189,0,0,0,1.124,2.717,6.224,6.224,0,0,0,3.7.853h4.309l-0.163.959q-2.63.266-4.608,0.267A6.832,6.832,0,0,1,156.774,27.287Zm8.148-6.767a2.727,2.727,0,0,0,1.558-2.678,2.342,2.342,0,0,0-.894-2.064,4.882,4.882,0,0,0-2.766-.626,5.062,5.062,0,0,0-3.986,1.439,8.392,8.392,0,0,0-1.707,4.4,18.314,18.314,0,0,0,3.307.293A10.543,10.543,0,0,0,164.922,20.52Z"/>
</svg>
