<svg xmlns="http://www.w3.org/2000/svg" width="229" height="67" viewBox="0 0 229 67">
  <defs>
    <style>
      .cls-1 {
        font-size: 29px;
        font-family: Ubuntu;
        font-weight: 700;
      }

      .cls-1, .cls-4 {
        fill: #fff;
      }

      .cls-2 {
        font-size: 25px;
      }

      .cls-3 {
        font-size: 40px;
        font-weight: 300;
        font-style: italic;
      }

      .cls-4 {
        fill-rule: evenodd;
      }
    </style>
  </defs>
  <text id="Plano_Essencial" data-name="Plano Essencial" class="cls-1" x="-1.352" y="31.087">Plano<tspan class="cls-2"> <tspan class="cls-3">Essencial</tspan></tspan></text>
  <path id="Forma_10" data-name="Forma 10" class="cls-4" d="M80.73,66.72q-1.881.108-3.78,0.09C61.3,66.653,46.881,60.172,37.4,49.029a2.334,2.334,0,0,1,.3-3.322,2.42,2.42,0,0,1,3.375.29c8.581,10.087,21.677,15.953,35.929,16.1,14.8,0.152,28.809-6.1,37.474-16.731A2.425,2.425,0,0,1,117.849,45a2.332,2.332,0,0,1,.367,3.315C109.381,59.143,95.575,65.867,80.73,66.72Zm-46.3-13.749a0.8,0.8,0,0,1-.617-0.234,7.392,7.392,0,0,1,.129-10.556,7.669,7.669,0,0,1,10.724.108,0.778,0.778,0,0,1-.013,1.112,0.809,0.809,0,0,1-1.13-.011,6.053,6.053,0,0,0-8.464-.086,5.834,5.834,0,0,0-.1,8.332,0.778,0.778,0,0,1-.014,1.112A0.8,0.8,0,0,1,34.429,52.971Z"/>
</svg>
