<svg xmlns="http://www.w3.org/2000/svg" width="335" height="445" viewBox="0 0 335 445">
  <defs>
    <style>
      .cls-1 {
        fill: none;
        stroke: #660ec3;
        stroke-width: 2px;
      }

      .cls-2 {
        fill: #660ec3;
        fill-rule: evenodd;
      }
    </style>
  </defs>
  <rect id="Retângulo_Arredondado_9" data-name="Retângulo Arredondado 9" class="cls-1" y="10" width="335" height="435" rx="10" ry="10"/>
  <path id="Forma_16" data-name="Forma 16" class="cls-2" d="M97.107,24a2.661,2.661,0,0,1-2.421-1.573L89.35,10.682c1.912,0.45,3.6.255,6.034,0.371l4.14,9.111a2.721,2.721,0,0,1-1.3,3.587A2.62,2.62,0,0,1,97.107,24Zm10.864,0a2.661,2.661,0,0,1-2.421-1.573s-2.834-6.239-5.219-11.487c2.019-.365,1.221-0.023,5.889.05l4.168,9.173a2.722,2.722,0,0,1-1.3,3.587A2.62,2.62,0,0,1,107.971,24Zm10.864,0a2.662,2.662,0,0,1-2.421-1.573l-5.178-11.4a33.209,33.209,0,0,0,5.658-.458l4.358,9.593a2.721,2.721,0,0,1-1.3,3.587A2.62,2.62,0,0,1,118.835,24ZM129.7,24a2.661,2.661,0,0,1-2.42-1.573l-5.387-11.855c2.445,0.273,2.176.679,6.172,0.672l4.052,8.92a2.721,2.721,0,0,1-1.3,3.587A2.617,2.617,0,0,1,129.7,24Zm10.864,0a2.661,2.661,0,0,1-2.42-1.573L133,11.113c2.419-.335,2.89.3,5.8-0.138,2.1,4.611,4.175,9.189,4.175,9.189a2.721,2.721,0,0,1-1.3,3.587A2.617,2.617,0,0,1,140.563,24Zm10.864,0a2.661,2.661,0,0,1-2.42-1.573l-5.075-11.169c3.042-.114,1.61-0.767,5.846-0.044l4.066,8.95a2.72,2.72,0,0,1-1.3,3.587A2.624,2.624,0,0,1,151.427,24Zm10.865,0a2.661,2.661,0,0,1-2.421-1.573L154.5,10.612a40.539,40.539,0,0,1,6.129.578c2.061,4.538,4.077,8.974,4.077,8.974a2.722,2.722,0,0,1-1.3,3.587A2.623,2.623,0,0,1,162.292,24Zm10.864,0a2.661,2.661,0,0,1-2.421-1.573l-5.2-11.443c3.236,0.062,1.207.448,5.889,0.051l4.148,9.13a2.722,2.722,0,0,1-1.3,3.587A2.623,2.623,0,0,1,173.156,24Zm10.864,0a2.662,2.662,0,0,1-2.421-1.573l-5.124-11.279c4.148,0.37,2.373-.237,5.786-0.176,2.095,4.612,4.176,9.192,4.176,9.192a2.722,2.722,0,0,1-1.3,3.587A2.62,2.62,0,0,1,184.02,24Zm10.864,0a2.661,2.661,0,0,1-2.42-1.573s-2.783-6.124-5.153-11.341c4.4,0.133,3.179.135,5.9,0.069l4.093,9.009a2.721,2.721,0,0,1-1.3,3.587A2.617,2.617,0,0,1,194.884,24Zm10.864,0a2.661,2.661,0,0,1-2.42-1.573l-4.95-10.894a20,20,0,0,0,5.478-.854c2.14,4.71,4.309,9.485,4.309,9.485a2.721,2.721,0,0,1-1.3,3.587A2.617,2.617,0,0,1,205.748,24Zm10.864,0a2.661,2.661,0,0,1-2.42-1.573s-2.707-5.957-5.055-11.126c2.629-.923,2.991.221,5.521-0.759l4.371,9.622a2.721,2.721,0,0,1-1.3,3.587A2.617,2.617,0,0,1,216.612,24Zm10.864,0a2.661,2.661,0,0,1-2.42-1.573l-5.34-11.752c5.5,0.346,1.2.327,5.923,0.126l4.254,9.364a2.72,2.72,0,0,1-1.3,3.587A2.624,2.624,0,0,1,227.476,24Zm10.865,0a2.661,2.661,0,0,1-2.421-1.573l-5.188-11.419a45.069,45.069,0,0,0,5.974.239l4.052,8.917a2.722,2.722,0,0,1-1.3,3.587A2.623,2.623,0,0,1,238.341,24Z"/>
</svg>
