<svg xmlns="http://www.w3.org/2000/svg" width="20" height="19" viewBox="0 0 20 19">
  <defs>
    <style>
      .cls-1 {
        fill: #fff;
        fill-rule: evenodd;
      }
    </style>
  </defs>
  <path id="Forma_12_copiar" data-name="Forma 12 copiar" class="cls-1" d="M19.747,10.441l0.021-.029,0.026-.037,0.023-.036,0.018-.031,0.021-.038,0.019-.037,0.016-.034,0.017-.041,0.014-.035,0.013-.037c0-.014.009-0.028,0.013-0.043l0.01-.034c0-.013.007-0.027,0.01-0.04s0.006-.028.009-0.043,0-.023.006-0.034,0-.03.006-0.045,0-.027,0-0.04,0-.023,0-0.035,0-.033,0-0.049S20,9.7,20,9.7s0-.008,0-0.013,0-.022,0-0.033,0-.034,0-0.051,0-.027,0-0.04,0-.019,0-0.03S19.983,9.5,19.98,9.481s0-.029-0.007-0.043,0-.017-0.006-0.026-0.009-.033-0.013-0.049-0.007-.029-0.012-0.043L19.933,9.3c-0.006-.017-0.012-0.033-0.019-0.049S19.9,9.219,19.9,9.206l-0.01-.021c-0.008-.017-0.017-0.034-0.025-0.051S19.85,9.109,19.844,9.1l-0.011-.019c-0.01-.017-0.02-0.033-0.031-0.049l-0.024-.036-0.013-.018L19.731,8.93c-0.01-.012-0.019-0.025-0.03-0.037l-0.008-.01-7.4-8.452A1.282,1.282,0,0,0,10.507.3a1.23,1.23,0,0,0-.134,1.756l5.6,6.4H1.267a1.245,1.245,0,1,0,0,2.49H15.884l-5.491,5.98a1.23,1.23,0,0,0,.092,1.758,1.282,1.282,0,0,0,1.789-.09l7.4-8.059,0.016-.02,0.032-.037Z"/>
</svg>
