<svg width="108" height="108" viewBox="0 0 108 108" fill="none" xmlns="http://www.w3.org/2000/svg">
<path d="M2.31612 108C1.04369 108 0 106.956 0 105.684V16.0985C0 14.8261 1.04369 13.7824 2.31612 13.7824H43.6632C44.9357 13.7824 45.9793 14.8261 45.9793 16.0985V47.1088C45.9793 47.7379 46.4797 48.2383 47.1088 48.2383H74.6735C75.3026 48.2383 75.803 47.7379 75.803 47.1088V40.2176C75.803 39.5886 75.3026 39.0882 74.6735 39.0882H71.228C69.9555 39.0882 68.9118 38.0445 68.9118 36.772V29.8809C68.9118 29.2518 68.4114 28.7514 67.7824 28.7514H60.8912C59.6187 28.7514 58.5751 27.7077 58.5751 26.4353V12.6529C58.5751 11.3805 59.6187 10.3368 60.8912 10.3368H67.7824C68.4114 10.3368 68.9118 9.83638 68.9118 9.20731V2.31612C68.9118 1.04369 69.9555 0 71.228 0H85.0103C86.2828 0 87.3265 1.04369 87.3265 2.31612V9.20731C87.3265 9.83638 87.8268 10.3368 88.4559 10.3368H95.3471C96.6195 10.3368 97.6632 11.3805 97.6632 12.6529V26.4353C97.6632 27.7077 96.6195 28.7514 95.3471 28.7514H88.4559C87.8268 28.7514 87.3265 29.2518 87.3265 29.8809V36.772C87.3265 38.0445 86.2828 39.0882 85.0103 39.0882H81.5647C80.9357 39.0882 80.4353 39.5886 80.4353 40.2176V47.1088C80.4353 47.7379 80.9357 48.2383 81.5647 48.2383H105.684C106.956 48.2383 108 49.282 108 50.5544V105.684C108 106.956 106.956 108 105.684 108H2.31612ZM91.9015 89.5854C93.1739 89.5854 94.2176 90.6291 94.2176 91.9015V102.238C94.2176 102.867 94.718 103.368 95.3471 103.368H102.238C102.867 103.368 103.368 102.867 103.368 102.238V54C103.368 53.3709 102.867 52.8705 102.238 52.8705H47.1088C46.4797 52.8705 45.9793 53.3709 45.9793 54V102.238C45.9793 102.867 46.4797 103.368 47.1088 103.368H54C54.6291 103.368 55.1295 102.867 55.1295 102.238V91.9015C55.1295 90.6291 56.1732 89.5854 57.4456 89.5854C58.718 89.5854 59.7617 90.6291 59.7617 91.9015V102.238C59.7617 102.867 60.2621 103.368 60.8912 103.368H88.4559C89.085 103.368 89.5854 102.867 89.5854 102.238V91.9015C89.5854 90.6291 90.6291 89.5854 91.9015 89.5854ZM5.76172 18.4146C5.13265 18.4146 4.63225 18.915 4.63225 19.5441V102.238C4.63225 102.867 5.13265 103.368 5.76172 103.368H40.2176C40.8467 103.368 41.3471 102.867 41.3471 102.238V19.5441C41.3471 18.915 40.8467 18.4146 40.2176 18.4146H5.76172ZM64.3368 14.969C63.7077 14.969 63.2073 15.4694 63.2073 16.0985V22.9897C63.2073 23.6187 63.7077 24.1191 64.3368 24.1191H71.228C72.5004 24.1191 73.5441 25.1628 73.5441 26.4353V33.3264C73.5441 33.9555 74.0445 34.4559 74.6735 34.4559H81.5647C82.1938 34.4559 82.6942 33.9412 82.6942 33.3264V26.4353C82.6942 25.1628 83.7379 24.1191 85.0103 24.1191H91.9015C92.5306 24.1191 93.031 23.6187 93.031 22.9897V16.0985C93.031 15.4694 92.5306 14.969 91.9015 14.969H85.0103C83.7379 14.969 82.6942 13.9253 82.6942 12.6529V5.76172C82.6942 5.13265 82.1938 4.63225 81.5647 4.63225H74.6735C74.0445 4.63225 73.5441 5.13265 73.5441 5.76172V12.6529C73.5441 13.9253 72.5004 14.969 71.228 14.969H64.3368Z" fill="white"/>
<path d="M18.4146 31.0103H13.7824V35.6426H18.4146V31.0103Z" fill="white"/>
<path d="M32.197 31.0103H27.5647V35.6426H32.197V31.0103Z" fill="white"/>
<path d="M18.4146 44.7927H13.7824V49.425H18.4146V44.7927Z" fill="white"/>
<path d="M32.197 44.7927H27.5647V49.425H32.197V44.7927Z" fill="white"/>
<path d="M18.4146 58.5751H13.7824V63.2073H18.4146V58.5751Z" fill="white"/>
<path d="M32.197 58.5751H27.5647V63.2073H32.197V58.5751Z" fill="white"/>
<path d="M18.4146 72.3574H13.7824V76.9897H18.4146V72.3574Z" fill="white"/>
<path d="M32.197 72.3574H27.5647V76.9897H32.197V72.3574Z" fill="white"/>
<path d="M59.7617 62.0206H55.1295V66.6529H59.7617V62.0206Z" fill="white"/>
<path d="M76.9897 62.0206H72.3574V66.6529H76.9897V62.0206Z" fill="white"/>
<path d="M94.2176 62.0206H89.5854V66.6529H94.2176V62.0206Z" fill="white"/>
<path d="M59.7617 75.803H55.1295V80.4353H59.7617V75.803Z" fill="white"/>
<path d="M76.9897 75.803H72.3574V80.4353H76.9897V75.803Z" fill="white"/>
<path d="M76.9897 89.5854H72.3574V94.2176H76.9897V89.5854Z" fill="white"/>
<path d="M94.2176 75.803H89.5854V80.4353H94.2176V75.803Z" fill="white"/>
<path d="M18.4146 86.1398H13.7824V90.772H18.4146V86.1398Z" fill="white"/>
<path d="M32.197 86.1398H27.5647V90.772H32.197V86.1398Z" fill="white"/>
</svg>
