<svg width="112" height="112" viewBox="0 0 112 112" fill="none" xmlns="http://www.w3.org/2000/svg">
<path d="M2.40191 112C1.08234 112 0 110.918 0 109.598V23.8411C0 22.5216 1.08234 21.4392 2.40191 21.4392H73.866C74.5184 21.4392 75.0373 20.9203 75.0373 20.2679V9.54832C75.0373 8.22875 76.1197 7.14641 77.4392 7.14641C78.0916 7.14641 78.6105 6.61266 78.6105 5.97511V2.40191C78.6105 1.08234 79.6929 0 81.0124 0H88.1589C89.4784 0 90.5608 1.08234 90.5608 2.40191V5.97511C90.5608 6.62748 91.0797 7.14641 91.7321 7.14641C93.0516 7.14641 94.134 8.22875 94.134 9.54832V20.2679C94.134 20.9203 94.6529 21.4392 95.3053 21.4392H109.598C110.918 21.4392 112 22.5216 112 23.8411V109.598C112 110.918 110.918 112 109.598 112H2.40191ZM48.8536 90.5608C47.534 90.5608 46.4517 89.4784 46.4517 88.1589C46.4517 86.8393 47.534 85.757 48.8536 85.757H52.4268C53.0792 85.757 53.5981 85.238 53.5981 84.5856V77.4392C53.5981 76.7869 53.0792 76.2679 52.4268 76.2679H48.8536C47.534 76.2679 46.4517 75.1856 46.4517 73.866C46.4517 72.5465 47.534 71.4641 48.8536 71.4641H52.4268C53.0792 71.4641 53.5981 70.9452 53.5981 70.2928V63.1464C53.5981 62.494 53.0792 61.9751 52.4268 61.9751H48.8536C47.534 61.9751 46.4517 60.8928 46.4517 59.5732C46.4517 58.2536 47.534 57.1713 48.8536 57.1713H52.4268C53.0792 57.1713 53.5981 56.6375 53.5981 56V48.8536C53.5981 48.2012 53.0792 47.6823 52.4268 47.6823H48.8536C47.534 47.6823 46.4517 46.5999 46.4517 45.2804C46.4517 43.9608 47.534 42.8785 48.8536 42.8785H52.4268C53.0792 42.8785 53.5981 42.3595 53.5981 41.7072V27.4143C53.5981 26.762 53.0792 26.243 52.4268 26.243H5.97511C5.32274 26.243 4.80381 26.762 4.80381 27.4143V106.025C4.80381 106.677 5.32274 107.196 5.97511 107.196H52.4268C53.0792 107.196 53.5981 106.677 53.5981 106.025V91.7321C53.5981 91.0797 53.0792 90.5608 52.4268 90.5608H48.8536ZM95.3053 26.243C94.6529 26.243 94.134 26.762 94.134 27.4143V66.7196C94.134 68.0392 93.0516 69.1215 91.7321 69.1215C91.0797 69.1215 90.5608 69.6404 90.5608 70.2928V77.4392C90.5608 78.7588 89.4784 79.8411 88.1589 79.8411C87.5065 79.8411 86.9875 80.3749 86.9875 81.0124V88.1589C86.9875 89.4784 85.9052 90.5608 84.5856 90.5608C83.2661 90.5608 82.1837 89.4784 82.1837 88.1589V81.0124C82.1837 80.3601 81.6648 79.8411 81.0124 79.8411C79.6929 79.8411 78.6105 78.7588 78.6105 77.4392V70.2928C78.6105 69.6404 78.0768 69.1215 77.4392 69.1215C76.1197 69.1215 75.0373 68.0392 75.0373 66.7196V27.4143C75.0373 26.762 74.5184 26.243 73.866 26.243H59.5732C58.9208 26.243 58.4019 26.762 58.4019 27.4143V41.7072C58.4019 42.3595 58.9208 42.8785 59.5732 42.8785H63.1464C64.466 42.8785 65.5483 43.9608 65.5483 45.2804C65.5483 46.5999 64.466 47.6823 63.1464 47.6823H59.5732C58.9208 47.6823 58.4019 48.2012 58.4019 48.8536V56C58.4019 56.6524 58.9208 57.1713 59.5732 57.1713H63.1464C64.466 57.1713 65.5483 58.2536 65.5483 59.5732C65.5483 60.8928 64.466 61.9751 63.1464 61.9751H59.5732C58.9208 61.9751 58.4019 62.494 58.4019 63.1464V70.2928C58.4019 70.9452 58.9208 71.4641 59.5732 71.4641H63.1464C64.466 71.4641 65.5483 72.5465 65.5483 73.866C65.5483 75.1856 64.466 76.2679 63.1464 76.2679H59.5732C58.9208 76.2679 58.4019 76.7869 58.4019 77.4392V84.5856C58.4019 85.238 58.9208 85.757 59.5732 85.757H63.1464C64.466 85.757 65.5483 86.8393 65.5483 88.1589C65.5483 89.4784 64.466 90.5608 63.1464 90.5608H59.5732C58.9208 90.5608 58.4019 91.0797 58.4019 91.7321V106.025C58.4019 106.677 58.9208 107.196 59.5732 107.196H106.025C106.677 107.196 107.196 106.677 107.196 106.025V27.4143C107.196 26.762 106.677 26.243 106.025 26.243H95.3053ZM81.0124 11.9502C80.3601 11.9502 79.8411 12.4692 79.8411 13.1215V63.1464C79.8411 63.7988 80.3749 64.3177 81.0124 64.3177H88.1589C88.8112 64.3177 89.3302 63.7988 89.3302 63.1464V13.1215C89.3302 12.4692 88.8112 11.9502 88.1589 11.9502H81.0124Z" fill="white"/>
<path d="M36.9626 57.1713H17.866V61.9751H36.9626V57.1713Z" fill="white"/>
<path d="M36.9626 85.757H17.866V90.5608H36.9626V85.757Z" fill="white"/>
<path d="M36.9626 71.4641H17.866V76.2679H36.9626V71.4641Z" fill="white"/>
<path d="M36.9626 42.8785H17.866V47.6823H36.9626V42.8785Z" fill="white"/>
</svg>
