<svg width="94" height="108" viewBox="0 0 94 108" fill="none" xmlns="http://www.w3.org/2000/svg">
<g clip-path="url(#clip0)">
<path d="M71.4309 108C71.0314 108 70.6177 107.971 70.2182 107.914C66.7088 107.442 63.9554 104.983 63.0138 101.495L62.6144 100.022C61.1735 94.6466 59.6898 89.085 57.4928 83.9809C55.7238 79.8348 53.5268 75.1454 49.9602 71.9428C49.4181 71.4567 48.5194 70.6418 47.3067 70.6418C47.2925 70.6418 47.2069 70.6418 47.1783 70.6418C47.1213 70.6418 47.0642 70.6561 47.0071 70.6561C46.9501 70.6561 46.9073 70.6561 46.8502 70.6561C46.7646 70.6418 46.6933 70.6418 46.6077 70.6418C45.609 70.6418 44.7103 71.3423 44.0398 71.9571C40.4875 75.1454 38.2905 79.8348 36.5072 83.9952C34.3245 89.085 32.8265 94.618 31.3856 99.9794L30.9719 101.509C30.0304 104.998 27.277 107.457 23.7675 107.929C23.368 107.986 22.9686 108.014 22.5834 108.014C19.5447 108.014 16.7913 106.399 15.2078 103.697C8.74518 92.6593 5.63515 79.4631 6.43406 66.5242C6.57672 64.2796 7.01897 62.0635 7.46122 59.9333C8.08894 56.8451 8.68812 53.9714 8.37426 51.1978C7.93201 47.309 6.41979 43.9349 4.83624 40.3463C3.70921 37.8014 2.55365 35.1994 1.74048 32.34C-0.0713304 26.0064 -1.82607 16.699 3.83761 9.02145C7.67522 3.80302 13.9523 0.543288 21.0426 0.100079C21.7988 0.0285941 22.5834 0 23.368 0C29.0745 0 35.423 1.18666 42.2137 3.51708C42.5989 3.64575 42.9698 3.78872 43.3407 3.93169L43.4834 3.98888C44.7816 4.47498 45.98 4.91819 47.0642 4.94678C47.0785 4.94678 47.1355 4.94678 47.1498 4.94678C48.0058 4.90389 49.1185 4.48928 50.4168 4.01747L50.4881 3.98888C50.9161 3.81732 51.3441 3.66005 51.772 3.51708C58.5913 1.18666 64.9112 0 70.5892 0C71.3738 0 72.1727 0.0285941 72.9288 0.0714853C80.0334 0.514694 86.3105 3.77442 90.1624 8.99285C95.8118 16.6847 94.0571 25.9778 92.2453 32.3114C91.4178 35.1994 90.2623 37.8014 89.1495 40.3177C87.5659 43.892 86.0537 47.2804 85.6115 51.1692C85.2976 53.9428 85.8825 56.8308 86.5102 59.8761C86.9525 62.035 87.409 64.2367 87.5374 66.4813C88.3363 79.4202 85.2263 92.6307 78.7637 103.654C77.1802 106.384 74.441 108 71.4309 108ZM47.1926 66.0238C49.2897 66.0238 51.2014 66.8388 53.056 68.4972C57.3216 72.3288 59.7754 77.5616 61.7441 82.1509C64.0695 87.5838 65.596 93.2883 67.0797 98.807L67.4791 100.28C68.0212 102.267 69.562 103.153 70.8317 103.311C70.9744 103.325 71.1598 103.339 71.3738 103.339C72.2012 103.339 73.7563 103.082 74.7977 101.309C80.7039 91.2153 83.6855 78.6195 82.9437 66.7673C82.8296 64.8658 82.4301 62.9214 82.0021 60.8626L81.9879 60.8054C81.3174 57.5314 80.6183 54.1573 81.0178 50.6259C81.5456 46.0365 83.2576 42.1763 84.9124 38.4305C86.0252 35.9428 87.0666 33.5981 87.7942 31.0246C90.2765 22.3463 89.8485 16.3844 86.4247 11.7236C83.4002 7.60604 78.3642 5.03257 72.6435 4.67514C71.9873 4.63225 71.3025 4.61795 70.632 4.61795C65.4391 4.61795 59.5899 5.71883 53.2557 7.87768L52.1002 8.2923C50.6022 8.84988 48.9188 9.47895 47.0785 9.55044C45.0384 9.47895 43.4263 8.87848 41.857 8.30659L40.7157 7.89198C34.3815 5.71882 28.5324 4.61795 23.3252 4.61795C22.6119 4.61795 21.9414 4.63225 21.2994 4.67514C15.6072 5.04686 10.5855 7.62033 7.56109 11.7379C4.12293 16.3987 3.70921 22.3606 6.19153 31.0389C6.93337 33.641 8.01761 36.0858 9.0733 38.4448C10.7282 42.1763 12.4544 46.0365 12.9822 50.6402C13.3817 54.143 12.6969 57.5171 12.0264 60.7768L11.9979 60.8912C11.5842 62.95 11.1847 64.8801 11.0706 66.7959C10.3287 78.6338 13.2961 91.2296 19.2166 101.323C19.9869 102.624 21.1996 103.353 22.6547 103.353C22.8545 103.353 23.0256 103.339 23.154 103.325C24.4523 103.153 25.993 102.267 26.5351 100.28L26.9346 98.8213C28.4183 93.2883 29.959 87.5552 32.2844 82.1509C34.2674 77.5473 36.7212 72.3145 40.9725 68.4972C42.8271 66.8245 44.7245 66.0238 46.7931 66.0238H47.1926Z" fill="white"/>
</g>
<defs>
<clipPath id="clip0">
<rect width="94" height="108" fill="white"/>
</clipPath>
</defs>
</svg>
