<svg width="86" height="116" viewBox="0 0 86 116" fill="none" xmlns="http://www.w3.org/2000/svg">
<g clip-path="url(#clip0)">
<path d="M2.59677 116C1.29837 116 0.213819 114.971 0.122167 113.666C-0.0153108 111.516 -1.00821 92.3823 6.17119 84.7043C8.17226 82.5544 10.7232 81.4181 13.5339 81.4181C19.0177 81.4181 22.9893 81.4181 26.0596 75.3678C26.4874 74.5385 27.3275 74.0164 28.2746 74.0164C28.6717 74.0164 29.0383 74.1086 29.3897 74.2928C30.5964 74.9224 31.0852 76.412 30.4589 77.6405C26.0138 86.3934 19.3843 86.3934 13.5339 86.3934C12.0522 86.3934 10.8607 86.9309 9.77616 88.098C6.15591 91.9677 4.90334 101.857 4.94917 109.812C4.94917 110.472 5.4838 111.025 6.15591 111.025H39.3033C39.9755 111.025 40.5101 110.487 40.5101 109.812V98.709C40.5101 97.3423 41.6252 96.2213 42.9847 96.2213C44.3442 96.2213 45.4593 97.3423 45.4593 98.709V109.812C45.4593 110.487 45.9939 111.025 46.666 111.025H79.844C80.5008 111.025 81.0508 110.487 81.0508 109.812C81.0813 101.857 79.8135 91.9677 76.1932 88.098C75.0934 86.9309 73.9019 86.3934 72.4355 86.3934H71.3051C65.0575 86.3934 59.1612 85.7178 55.4646 77.533C54.8994 76.2891 55.4493 74.7996 56.6866 74.2468C57.0227 74.0932 57.3588 74.0164 57.7101 74.0164C58.6724 74.0164 59.5584 74.5846 59.9556 75.4752C62.5371 81.1724 66.0351 81.2645 71.8397 81.4181H72.4355C75.2461 81.4181 77.7971 82.5544 79.7982 84.7043C86.9929 92.413 86 111.516 85.8625 113.666C85.7861 114.971 84.7016 116 83.3879 116H2.59677Z" fill="white"/>
<path d="M42.9847 71.5901C34.1403 71.5901 25.7847 59.597 25.7847 46.8975C25.7847 45.7919 25.8763 44.6402 26.0596 43.381C26.1207 43.0278 26.0138 42.6746 25.7847 42.3982C25.5556 42.1371 25.2195 41.9836 24.8682 41.9836H24.5779C23.2184 41.9836 22.1033 40.8626 22.1033 39.4959V2.48769C22.1033 1.121 23.2184 0 24.5779 0H61.3914C62.7509 0 63.866 1.121 63.866 2.48769V39.4959C63.866 40.8626 62.7509 41.9836 61.3914 41.9836H61.1012C60.7499 41.9836 60.4138 42.1371 60.1847 42.3982C59.9556 42.6746 59.8486 43.0278 59.9097 43.381C60.1083 44.6402 60.2 45.7919 60.2 46.8975C60.1847 59.5817 51.8291 71.5901 42.9847 71.5901ZM32.3378 41.9836C31.7726 41.9836 31.2838 42.3675 31.1616 42.9203C30.8866 44.1334 30.7339 45.4694 30.7339 46.8975C30.7339 57.3243 37.5772 66.6148 42.9847 66.6148C48.3921 66.6148 55.2355 57.3243 55.2355 46.8975C55.2355 45.4694 55.098 44.1334 54.8078 42.9203C54.6856 42.3675 54.1968 41.9836 53.6316 41.9836H32.3378ZM28.2593 4.97538C27.5872 4.97538 27.0525 5.51284 27.0525 6.18851V35.7951C27.0525 36.4707 27.6024 37.0082 28.2593 37.0082H57.7101C58.3822 37.0082 58.9168 36.4707 58.9168 35.7951V6.18851C58.9168 5.51284 58.3669 4.97538 57.7101 4.97538H28.2593Z" fill="white"/>
<path d="M42.9847 30.8811C41.6252 30.8811 40.5101 29.7601 40.5101 28.3935V24.6926C40.5101 24.017 39.9755 23.4795 39.3033 23.4795H35.622C34.2625 23.4795 33.1474 22.3585 33.1474 20.9918C33.1474 19.6251 34.2625 18.5041 35.622 18.5041H39.3033C39.9755 18.5041 40.5101 17.9667 40.5101 17.291V13.5902C40.5101 12.2235 41.6252 11.1025 42.9847 11.1025C44.3442 11.1025 45.4593 12.2235 45.4593 13.5902V17.291C45.4593 17.9667 45.9939 18.5041 46.666 18.5041H50.3474C51.7069 18.5041 52.822 19.6251 52.822 20.9918C52.822 22.3585 51.7069 23.4795 50.3474 23.4795H46.666C45.9939 23.4795 45.4593 24.017 45.4593 24.6926V28.3935C45.4593 29.7601 44.3595 30.8811 42.9847 30.8811Z" fill="white"/>
<path d="M17.2458 101.197C15.8863 101.197 14.7712 100.076 14.7712 98.709C14.7712 97.3423 15.8863 96.2213 17.2458 96.2213H28.2899C29.6494 96.2213 30.7645 97.3423 30.7645 98.709C30.7645 100.076 29.6494 101.197 28.2899 101.197H17.2458Z" fill="white"/>
<path d="M40.5406 88.0826C40.5406 86.7159 41.6405 85.5949 43.0152 85.5949C44.39 85.5949 45.4898 86.7005 45.4898 88.0826C45.4898 89.4646 44.3748 90.5703 43.0152 90.5703C41.6557 90.5703 40.5406 89.4646 40.5406 88.0826Z" fill="white"/>
</g>
<defs>
<clipPath id="clip0">
<rect width="86" height="116" fill="white"/>
</clipPath>
</defs>
</svg>
