<svg width="100" height="100" viewBox="0 0 100 100" fill="none" xmlns="http://www.w3.org/2000/svg">
<path d="M30.8578 64.906C37.4239 64.906 42.5734 56.7646 42.5734 46.3595C42.5734 33.3201 34.3791 31.9036 30.8578 31.9036C27.3365 31.9036 19.1422 33.3069 19.1422 46.3595C19.1422 56.7514 24.2917 64.906 30.8578 64.906ZM30.8578 36.1927C32.6979 36.1927 38.2843 36.1927 38.2843 46.3595C38.2843 53.9582 34.816 60.6169 30.8578 60.6169C26.8996 60.6169 23.4313 53.9449 23.4313 46.3595C23.4313 36.1927 29.0177 36.1927 30.8578 36.1927Z" fill="white"/>
<path d="M59.7299 77.2571C57.8104 74.2123 54.9907 73.6696 52.2505 73.1665C51.1649 72.968 50.225 72.4649 49.1528 71.7898C47.2597 70.5851 46.0948 69.4334 45.5785 68.2817C45.2343 67.5007 44.4665 66.9976 43.6193 66.9976C43.3148 66.9976 43.0236 67.0638 42.7456 67.183C41.66 67.6595 41.1702 68.9304 41.6468 70.0159C42.5073 71.9619 44.2018 73.7225 46.8361 75.4038C48.1202 76.2245 49.6161 77.032 51.7209 77.4292C54.0508 77.866 55.2025 78.144 56.0895 79.5473C56.6587 80.4739 57.2015 83.3863 57.4001 85.1602C57.4001 85.1999 57.4133 85.2396 57.4133 85.2793V94.6783C57.4133 95.2608 56.9367 95.7241 56.3675 95.7241H49.9868C49.4043 95.7241 48.941 95.2608 48.941 94.6783V88.2976C48.941 87.1194 47.9746 86.153 46.7964 86.153C45.6182 86.153 44.6518 87.1194 44.6518 88.2976V94.6783C44.6518 95.2608 44.1885 95.7241 43.606 95.7241H18.0964C17.5139 95.7241 17.0506 95.2608 17.0506 94.6783V88.2976C17.0506 87.1194 16.0842 86.153 14.906 86.153C13.7278 86.153 12.7615 87.1194 12.7615 88.2976V94.6783C12.7615 95.2608 12.2849 95.7241 11.7156 95.7241H5.33492C4.75245 95.7241 4.28912 95.2608 4.28912 94.6783V85.2793C4.28912 85.2396 4.28912 85.1999 4.30236 85.1602C4.50093 83.3863 5.04369 80.4739 5.62616 79.5473C6.51311 78.144 7.6251 77.8925 10.2595 77.3895C12.1393 77.032 13.6484 76.1848 14.8795 75.4038C17.5139 73.7225 19.2084 71.9619 20.0688 70.0159C20.5454 68.9304 20.0556 67.6595 18.9833 67.183C18.7053 67.0638 18.4141 66.9976 18.1096 66.9976C17.2624 66.9976 16.4946 67.5007 16.1504 68.2817C15.6341 69.4334 14.4692 70.5851 12.5894 71.7898C11.4906 72.4914 10.5375 72.9812 9.21366 73.2327C6.73815 73.6961 3.91845 74.2256 1.99894 77.2836C0.966375 78.9251 0.304474 82.2875 0.026476 84.8954C0 84.9484 0 85.0278 0 85.094V97.8555C0 99.0336 0.966375 100 2.14456 100H59.5711C60.7493 100 61.7156 99.0336 61.7156 97.8555V85.094C61.7156 85.0146 61.7156 84.9484 61.7024 84.869C61.4244 82.2743 60.7625 78.8986 59.7299 77.2571Z" fill="white"/>
<path d="M94.6651 0H43.6193C40.6804 0 38.2844 2.39608 38.2844 5.33492V24.4771C38.2844 25.6553 39.2507 26.6217 40.4289 26.6217C41.6071 26.6217 42.5735 25.6553 42.5735 24.4771V5.33492C42.5735 4.75245 43.0368 4.28912 43.6193 4.28912H94.6651C95.2476 4.28912 95.7109 4.75245 95.7109 5.33492V37.2385C95.7109 37.821 95.2476 38.2844 94.6651 38.2844H85.094C84.5248 38.2844 83.982 38.5094 83.5849 38.9198L69.8835 52.6079C69.6849 52.8065 69.4202 52.9124 69.1422 52.9124C69.0098 52.9124 68.8642 52.8859 68.745 52.8329C68.3479 52.6741 68.0964 52.2902 68.0964 51.8666V40.4289C68.0964 39.2507 67.13 38.2844 65.9518 38.2844H53.1904C52.0122 38.2844 51.0458 39.2507 51.0458 40.4289C51.0458 41.6071 52.0122 42.5735 53.1904 42.5735H62.7615C63.3439 42.5735 63.8073 43.0368 63.8073 43.6193V59.5711C63.8073 60.4448 64.3235 61.2126 65.1311 61.5568C65.3958 61.6627 65.6606 61.7156 65.9518 61.7156C66.5211 61.7156 67.0638 61.4906 67.461 61.0935L85.6632 42.8912C85.8618 42.6926 86.1266 42.5867 86.4046 42.5867H94.6518C97.5907 42.5867 99.9868 40.1906 99.9868 37.2518V5.33492C100 2.39608 97.6039 0 94.6651 0Z" fill="white"/>
<path d="M53.1903 17.0506H85.094C86.2721 17.0506 87.2385 16.0842 87.2385 14.906C87.2385 13.7279 86.2721 12.7615 85.094 12.7615H53.1903C52.0122 12.7615 51.0458 13.7279 51.0458 14.906C51.0458 16.0842 52.0122 17.0506 53.1903 17.0506Z" fill="white"/>
<path d="M53.1903 29.812H85.094C86.2721 29.812 87.2385 28.8456 87.2385 27.6674C87.2385 26.4893 86.2721 25.5229 85.094 25.5229H53.1903C52.0122 25.5229 51.0458 26.4893 51.0458 27.6674C51.0458 28.8456 52.0122 29.812 53.1903 29.812Z" fill="white"/>
</svg>
