<svg width="100" height="100" viewBox="0 0 100 100" fill="none" xmlns="http://www.w3.org/2000/svg">
<path d="M98.8483 77.1644C97.5112 73.9873 95.0225 72.3723 91.4482 72.3723C90.2303 72.3723 88.8801 72.5576 87.4371 72.9283C85.5838 73.4048 83.6643 73.9344 81.8242 74.4507L81.758 74.4639C77.5218 75.6553 73.1401 76.8864 68.7847 77.5351C68.7318 77.5483 68.6788 77.5483 68.6259 77.5483C68.1228 77.5483 67.6728 77.1777 67.5933 76.6614L67.5536 76.4364C67.5404 76.304 67.5139 76.1584 67.4874 76.026C66.5608 71.9884 62.6688 67.6728 54.5274 67.6728C53.4684 67.6728 52.3431 67.739 51.1914 67.8978C50.0794 68.0435 49.0469 68.1096 48.1467 68.1096C43.4604 68.1096 41.8719 66.2166 40.323 64.3633C39.4493 63.3175 38.4697 62.1393 37.0003 61.4377C35.3985 60.6699 33.4392 60.2727 31.1755 60.2727C26.3039 60.2727 21.4191 62.0334 18.9568 63.0792C18.8245 63.1321 18.6921 63.1586 18.5465 63.1586C18.3479 63.1586 18.1493 63.1057 17.964 62.9865C17.6728 62.788 17.5007 62.457 17.5007 62.1128V53.1772C17.5007 51.999 16.5343 51.0326 15.3561 51.0326H2.14456C0.966375 51.0458 0 52.0122 0 53.1904V97.8555C0 99.0337 0.966375 100 2.14456 100H15.3429C16.521 100 17.4874 99.0337 17.4874 97.8555V91.6336C17.4874 91.3027 17.6463 90.9849 17.9243 90.7864C18.1096 90.654 18.3214 90.5878 18.5332 90.5878C18.6391 90.5878 18.745 90.601 18.8509 90.6408C27.5748 93.4472 48.61 100 55.7321 100C63.3307 100 90.4951 90.1377 98.279 85.1602C99.0469 84.6572 101.377 83.1613 98.8483 77.1644ZM13.1983 94.6651C13.1983 95.2476 12.735 95.7109 12.1525 95.7109H5.33492C4.75245 95.7109 4.28912 95.2476 4.28912 94.6651V56.3808C4.28912 55.7983 4.75245 55.3349 5.33492 55.3349H12.1525C12.735 55.3349 13.1983 55.7983 13.1983 56.3808V94.6651ZM95.1152 82.0625C86.5766 87.04 61.5435 95.7109 55.7321 95.7109C48.3982 95.7109 21.2735 86.9209 18.2023 85.9148C17.7787 85.7692 17.4874 85.372 17.4874 84.9219V69.1819C17.4874 68.798 17.6992 68.4406 18.0302 68.2685C22.1737 66.018 27.3233 64.5619 31.1755 64.5619C32.7773 64.5619 34.1011 64.8134 35.1469 65.3032C35.7559 65.5944 36.3384 66.296 37.0135 67.0903L37.0532 67.13C38.9065 69.354 41.4615 72.3988 48.2261 72.3988C49.3249 72.3988 50.503 72.3193 51.7342 72.1605C52.727 72.0281 53.6802 71.9619 54.5803 71.9619C58.0222 71.9619 60.6434 72.9018 62.1525 74.6889C63.1321 75.8406 63.3704 76.9924 63.4233 77.5881C63.4631 78.0514 63.1983 78.5015 62.7482 78.6603C62.3378 78.8192 61.901 78.9781 61.4509 79.1634C58.512 80.3019 55.5467 81.3609 53.7596 81.3609C53.4684 81.3609 53.2168 81.3344 52.9785 81.2815C51.3503 80.8843 46.6111 79.6664 38.8668 77.6675C38.8668 77.6675 38.8668 77.6675 38.8536 77.6675L33.9423 76.3966C33.929 76.3966 33.929 76.3966 33.9158 76.3966C33.8364 76.3834 33.7702 76.3569 33.704 76.3437L33.6908 76.3702C32.6317 76.2245 31.5992 76.8864 31.3344 77.9455C31.0564 79.0045 31.6389 80.0768 32.6317 80.474V80.5004C33.7172 80.7784 35.5838 81.2682 37.7548 81.8242L37.7945 81.8375C42.9971 83.1745 49.9073 84.9616 51.9592 85.4647C52.4887 85.5971 53.0712 85.6633 53.7199 85.6633C56.6322 85.6633 60.1668 84.2865 63.013 83.1877L63.1056 83.148C63.8867 82.8436 64.6148 82.5656 65.237 82.3537C65.3031 82.314 65.3693 82.2876 65.4355 82.2611C65.5414 82.2214 65.6473 82.1949 65.7532 82.1817C71.3926 81.7845 76.8732 80.3416 82.9362 78.6339C85.0013 78.0514 86.7355 77.5748 88.5094 77.1115C89.6743 76.807 90.6407 76.6614 91.4615 76.6614C93.9767 76.6614 94.5856 78.0911 94.9034 78.8589C95.2608 79.6929 95.4991 80.4078 95.6182 80.9505C95.7109 81.3741 95.5123 81.8242 95.1152 82.0625Z" fill="white"/>
<path d="M69.0496 61.6892C68.8642 61.6759 68.7319 61.6627 68.6127 61.6362C68.5333 61.5965 68.4803 61.57 68.4141 61.5568C68.2685 61.5038 68.1361 61.4641 68.0567 61.4112C68.0302 61.3979 68.0038 61.3847 67.9641 61.3715C65.9254 60.1403 38.2579 43.0368 38.2579 21.2867C38.2844 10.7096 44.2812 0 55.7454 0C61.1465 0 65.5415 3.85226 68.4539 6.4072C68.6524 6.5793 68.9039 6.67196 69.1422 6.67196C69.3938 6.67196 69.632 6.5793 69.8306 6.4072C72.743 3.85226 77.1248 0 82.5391 0C94.0032 0 100 10.7096 100 21.2867C100 43.1295 72.1473 60.2595 70.2939 61.3715C70.2807 61.3847 70.2675 61.3847 70.241 61.3979C70.1219 61.4641 69.9895 61.5171 69.8571 61.57C69.7909 61.5965 69.7247 61.623 69.6718 61.6495C69.6585 61.6495 69.6585 61.6495 69.6585 61.6495C69.5394 61.6759 69.407 61.6892 69.2084 61.7024C69.1819 61.7024 69.1555 61.7024 69.129 61.7156C69.1158 61.7024 69.0893 61.7024 69.0496 61.6892ZM55.7454 4.28912C47.1009 4.28912 42.5735 12.8409 42.5735 21.2867C42.5735 38.0858 62.4703 52.5947 68.5598 56.6455C68.7319 56.7646 68.9437 56.8176 69.1422 56.8176C69.3408 56.8176 69.5394 56.7646 69.7247 56.6455C75.8274 52.5947 95.7109 38.0858 95.7109 21.2867C95.7109 12.8409 91.1835 4.28912 82.5391 4.28912C78.753 4.28912 75.2979 7.30739 72.5312 9.72994C71.7766 10.3918 71.1147 10.9743 70.5322 11.4244C70.466 11.4509 70.3866 11.4906 70.3072 11.5436C70.188 11.623 70.0557 11.6759 69.8968 11.7421L69.8438 11.7686C69.7247 11.8216 69.6188 11.8613 69.5526 11.8613C69.4599 11.8745 69.354 11.8877 69.2084 11.8877H69.129C68.9701 11.8877 68.8378 11.8877 68.7451 11.8745C68.6524 11.8613 68.5333 11.8083 68.4009 11.7554C68.2156 11.6892 68.0964 11.623 67.9905 11.5568C67.8979 11.5038 67.8317 11.4641 67.7655 11.4376C67.183 10.9743 66.5211 10.4051 65.793 9.76966C62.9998 7.32063 59.5447 4.28912 55.7454 4.28912Z" fill="white"/>
</svg>
