<svg width="111" height="93" viewBox="0 0 111 93" fill="none" xmlns="http://www.w3.org/2000/svg">
<path d="M30.7109 57.6984C29.4031 57.6984 28.3305 56.6291 28.3305 55.3254V48.2651C28.3305 47.6206 27.8162 47.1079 27.1696 47.1079H20.087C18.7792 47.1079 17.7065 46.0386 17.7065 44.7349V30.6143C17.7065 29.3106 18.7792 28.2413 20.087 28.2413H27.1696C27.8162 28.2413 28.3305 27.7286 28.3305 27.0841V20.0238C28.3305 18.7201 29.4031 17.6508 30.7109 17.6508H44.8761C46.1839 17.6508 47.2566 18.7201 47.2566 20.0238V27.0841C47.2566 27.7286 47.7709 28.2413 48.4174 28.2413H55.5C56.8078 28.2413 57.8805 29.3106 57.8805 30.6143V44.7349C57.8805 46.0386 56.8078 47.1079 55.5 47.1079H48.4174C47.7709 47.1079 47.2566 47.6206 47.2566 48.2651V55.3254C47.2566 56.6291 46.1839 57.6984 44.8761 57.6984H30.7109ZM23.6283 32.9872C22.9818 32.9872 22.4675 33.4999 22.4675 34.1444V41.2048C22.4675 41.8493 22.9818 42.362 23.6283 42.362H30.7109C32.0187 42.362 33.0914 43.4313 33.0914 44.7349V51.7953C33.0914 52.4398 33.6057 52.9524 34.2522 52.9524H41.3348C41.9814 52.9524 42.4957 52.4251 42.4957 51.7953V44.7349C42.4957 43.4313 43.5683 42.362 44.8761 42.362H51.9587C52.6053 42.362 53.1196 41.8493 53.1196 41.2048V34.1444C53.1196 33.4999 52.6053 32.9872 51.9587 32.9872H44.8761C43.5683 32.9872 42.4957 31.9179 42.4957 30.6143V23.554C42.4957 22.9094 41.9814 22.3968 41.3348 22.3968H34.2522C33.6057 22.3968 33.0914 22.9094 33.0914 23.554V30.6143C33.0914 31.9179 32.0187 32.9872 30.7109 32.9872H23.6283Z" fill="white"/>
<path d="M90.913 93C83.7423 93 77.9087 87.1848 77.9087 80.0365C77.9087 79.0405 78.0556 78.0151 78.3789 76.7993C78.467 76.4478 78.3936 76.0816 78.1732 75.8033C77.9527 75.525 77.6148 75.3492 77.2474 75.3492H37.2792C36.9265 75.3492 36.5886 75.5103 36.3681 75.8033C36.1477 76.0816 36.0743 76.4624 36.1624 76.7993C36.4857 78.0151 36.6326 79.0405 36.6326 80.0365C36.6326 87.1848 30.799 93 23.6283 93C16.4575 93 10.6239 87.1848 10.6239 80.0365C10.6239 79.0405 10.7709 78.0151 11.0941 76.7993C11.1823 76.4478 11.1088 76.0816 10.8884 75.8033C10.668 75.525 10.33 75.3492 9.96267 75.3492H2.38046C1.07268 75.3492 0 74.2799 0 72.9762V2.37297C0 1.0693 1.07268 0 2.38046 0H73.2065C74.5143 0 75.587 1.0693 75.587 2.37297V27.0841C75.587 27.7286 76.1013 28.2413 76.7478 28.2413H83.8304C84.477 28.2413 84.9913 27.7286 84.9913 27.0841V23.5539C84.9913 22.2503 86.0639 21.181 87.3717 21.181C88.6795 21.181 89.7522 22.2503 89.7522 23.5539V27.0841C89.7522 27.7286 90.2665 28.2413 90.913 28.2413H97.9956C98.8332 28.2413 99.612 28.6807 100.038 29.3985L110.662 47.0493C110.882 47.4155 111 47.8403 111 48.2651V72.9762C111 74.2799 109.927 75.3492 108.62 75.3492H104.579C104.226 75.3492 103.873 75.5103 103.668 75.8033C103.447 76.0816 103.374 76.4624 103.462 76.7993C103.785 78.0151 103.932 79.0405 103.932 80.0365C103.917 87.1848 98.0838 93 90.913 93ZM84.7855 74.5875C83.419 76.1109 82.6696 78.0444 82.6696 80.0365C82.6696 84.5774 86.3725 88.2541 90.913 88.2541C95.4535 88.2541 99.1565 84.5628 99.1565 80.0365C99.1565 78.0444 98.4071 76.1109 97.0405 74.5875C97.0258 74.5728 97.0111 74.5582 96.9964 74.5435C96.9817 74.5289 96.967 74.5143 96.9377 74.4996C95.3801 72.8444 93.2053 71.9069 90.8983 71.9069C88.5913 71.9069 86.3872 72.859 84.859 74.5143C84.8443 74.5289 84.8002 74.5582 84.7855 74.5875ZM17.5008 74.5875C16.1342 76.1109 15.3848 78.0444 15.3848 80.0365C15.3848 84.5774 19.0878 88.2541 23.6283 88.2541C28.1688 88.2541 31.8717 84.5628 31.8717 80.0365C31.8717 78.0444 31.1223 76.1109 29.7558 74.5875C29.7411 74.5728 29.7264 74.5582 29.7117 74.5435C29.697 74.5289 29.6823 74.5143 29.6529 74.4996C28.11 72.8444 25.9206 71.9069 23.6136 71.9069C21.3066 71.9069 19.1025 72.859 17.5743 74.5143C17.5596 74.5289 17.5155 74.5582 17.5008 74.5875ZM90.913 67.0731C93.2053 67.0731 95.4241 67.7029 97.496 68.9334C97.5107 68.948 97.5842 68.9773 97.5989 68.992C98.0838 69.2849 98.5981 69.6511 99.1418 70.1052C99.2299 70.1785 99.3181 70.237 99.4063 70.2956L99.4651 70.3249C99.6708 70.5154 99.9353 70.6032 100.214 70.6032H105.064C105.71 70.6032 106.224 70.0759 106.224 69.4461V58.8556C106.224 58.2111 105.71 57.6984 105.064 57.6984H87.3717C86.0639 57.6984 84.9913 56.6291 84.9913 55.3254V34.1444C84.9913 33.4999 84.477 32.9872 83.8304 32.9872H76.7478C76.1013 32.9872 75.587 33.4999 75.587 34.1444V69.4461C75.587 70.0906 76.1013 70.6032 76.7478 70.6032H81.5969C81.8761 70.6032 82.1553 70.5007 82.361 70.3103L82.4051 70.281C82.4933 70.2224 82.5814 70.1638 82.6696 70.0906C83.2133 69.6365 83.7276 69.2703 84.2419 68.9627C84.2566 68.948 84.2859 68.9334 84.3006 68.9334C86.4019 67.7029 88.6207 67.0731 90.913 67.0731ZM23.6283 67.0731C25.9206 67.0731 28.1394 67.7029 30.226 68.9334C30.2407 68.948 30.3141 68.9773 30.3288 68.992C30.8137 69.2849 31.328 69.6511 31.8717 70.1052C31.9599 70.1785 32.0481 70.237 32.1362 70.2956L32.195 70.3249C32.4007 70.5154 32.6652 70.6032 32.9444 70.6032H69.6652C70.3118 70.6032 70.8261 70.0759 70.8261 69.4461V5.90313C70.8261 5.25862 70.3118 4.74594 69.6652 4.74594H5.92176C5.27522 4.74594 4.76092 5.25862 4.76092 5.90313V69.4461C4.76092 70.0906 5.27522 70.6032 5.92176 70.6032H14.3122C14.5913 70.6032 14.8705 70.5007 15.0763 70.3103L15.1203 70.281C15.2085 70.2224 15.2967 70.1638 15.3701 70.0906C15.9138 69.6365 16.4281 69.2703 16.9424 68.9627C16.9571 68.948 17.0012 68.9334 17.0159 68.9334C19.1172 67.7029 21.336 67.0731 23.6283 67.0731ZM90.913 32.9872C90.2665 32.9872 89.7522 33.4999 89.7522 34.1444V51.7952C89.7522 52.4398 90.2665 52.9524 90.913 52.9524H105.078C105.725 52.9524 106.239 52.4251 106.239 51.7952V49.2465C106.239 49.0414 106.18 48.8217 106.077 48.6459L96.9817 33.5439C96.776 33.1923 96.394 32.9726 95.9825 32.9726H90.913V32.9872Z" fill="white"/>
<path d="M23.6283 82.4388C22.3205 82.4388 21.2478 81.3842 21.2478 80.0658C21.2478 78.7622 22.3058 77.6929 23.6283 77.6929C24.936 77.6929 26.0087 78.7475 26.0087 80.0658C26.0087 81.3842 24.936 82.4388 23.6283 82.4388Z" fill="white"/>
<path d="M90.9131 82.4388C89.5906 82.4388 88.5326 81.3842 88.5326 80.0658C88.5326 78.7622 89.5906 77.6929 90.9131 77.6929C92.2208 77.6929 93.2935 78.7475 93.2935 80.0658C93.2935 81.3842 92.2208 82.4388 90.9131 82.4388Z" fill="white"/>
</svg>
