<svg width="104" height="104" viewBox="0 0 104 104" fill="none" xmlns="http://www.w3.org/2000/svg">
<g clip-path="url(#clip0)">
<path d="M98.8234 50.9124C98.5618 50.9124 98.3002 50.8711 98.0524 50.7747C96.896 50.3479 96.3039 49.0675 96.7307 47.911C98.5894 42.8308 99.5393 37.8745 99.5393 33.1522C99.5393 24.52 96.8409 4.46068 71.9079 4.46068C63.3995 4.46068 60.2192 7.54461 56.8599 10.8075C55.8411 11.7988 54.6847 12.9277 53.363 13.9465C52.9637 14.2494 52.4956 14.4146 52 14.4146C51.5044 14.4146 51.0363 14.2494 50.637 13.9465C49.3704 12.969 48.269 11.9089 47.2089 10.8901L47.1538 10.8351C43.7395 7.54461 40.5179 4.44692 32.0921 4.44692C8.05401 4.46068 4.46068 22.4411 4.46068 33.1522C4.46068 37.8745 5.39688 42.8308 7.25549 47.911C7.46201 48.4755 7.43447 49.0813 7.18666 49.6182C6.93884 50.1551 6.48451 50.5682 5.93381 50.7747C5.68599 50.8711 5.42441 50.9124 5.16283 50.9124C4.2404 50.9124 3.40058 50.3204 3.07016 49.453C1.03257 43.8771 0 38.3977 0 33.1522C0 12.3908 11.9915 0 32.0921 0C42.3352 0 46.727 4.22663 50.2515 7.62722C50.5957 7.95764 50.9261 8.27429 51.2566 8.57718C51.4631 8.76992 51.7384 8.8663 52 8.8663C52.2754 8.8663 52.5369 8.76992 52.7435 8.56341C53.0739 8.24676 53.4043 7.9301 53.7485 7.59968C57.2454 4.22663 61.5822 0 71.9079 0C91.7056 0 104 12.7074 104 33.1522C104 38.3977 102.967 43.8771 100.93 49.453C100.599 50.3204 99.7596 50.9124 98.8234 50.9124Z" fill="white"/>
<path d="M52 104C51.5594 104 51.1326 103.876 50.7747 103.628C50.1138 103.188 34.2536 92.6556 20.2382 76.699C19.426 75.7766 19.5223 74.3585 20.4448 73.56C20.8578 73.202 21.3672 72.9955 21.9179 72.9955C22.565 72.9955 23.1707 73.2709 23.5975 73.7527C34.3913 86.0196 46.6169 95.2301 51.3804 98.6031C51.5732 98.7408 51.7934 98.8097 52.0137 98.8097C52.234 98.8097 52.4543 98.7408 52.647 98.6031C57.4106 95.2163 69.6499 86.0058 80.4299 73.739C80.8567 73.2571 81.4625 72.9818 82.1096 72.9818C82.6465 72.9818 83.1697 73.1745 83.5827 73.5325C84.037 73.9317 84.2986 74.4686 84.3399 75.0607C84.3812 75.6527 84.1885 76.2309 83.7892 76.6715C70.2282 92.0911 54.9324 102.499 53.2253 103.628C52.8673 103.876 52.4405 104 52 104Z" fill="white"/>
<path d="M52 80.7741C51.0363 80.7741 50.1827 80.1684 49.8798 79.2597L39.3752 47.7183C39.2375 47.2915 38.8382 46.9886 38.3839 46.9748C38.3701 46.9748 38.3564 46.9748 38.3426 46.9748C37.902 46.9748 37.5165 47.2364 37.3376 47.6357L30.8255 62.835C30.4676 63.6611 29.669 64.1842 28.7742 64.1842H2.23034C1.00503 64.1842 0 63.1792 0 61.9539C0 60.7286 1.00503 59.7236 2.23034 59.7236H26.5851C27.0257 59.7236 27.4112 59.462 27.5902 59.0627L36.6767 37.8469C37.0485 36.9796 37.7644 36.4977 38.6868 36.4977C38.7281 36.4977 38.7694 36.4977 38.8107 36.4977C39.7331 36.539 40.5454 37.1448 40.8345 38.0121L50.4993 67.0204C50.6508 67.4609 51.0638 67.7638 51.5319 67.7638C51.5457 67.7638 51.5594 67.7638 51.5732 67.7638C52.0551 67.75 52.4681 67.4058 52.592 66.9377L63.0966 24.9054C63.3445 23.9142 64.2256 23.2258 65.2306 23.212C66.332 23.2533 67.1305 23.8316 67.4059 24.8504L76.6852 58.8975C76.8091 59.3656 77.2497 59.696 77.7315 59.696H101.742C102.967 59.696 103.972 60.701 103.972 61.9264C103.972 63.1517 102.967 64.1567 101.742 64.1567H75.2258C74.2208 64.1567 73.3397 63.4821 73.0781 62.5184L66.4697 38.2737C66.3458 37.7919 65.9052 37.4752 65.4234 37.4752H65.3958C64.9002 37.4752 64.4734 37.8194 64.3495 38.3013L54.1477 79.067C53.9137 80.0307 53.0601 80.7191 52.0688 80.7604L52 80.7741Z" fill="white"/>
</g>
<defs>
<clipPath id="clip0">
<rect width="104" height="104" fill="white"/>
</clipPath>
</defs>
</svg>
