<svg width="112" height="112" viewBox="0 0 112 112" fill="none" xmlns="http://www.w3.org/2000/svg">
<g clip-path="url(#clip0)">
<path d="M41.7072 14.3966C43.0268 14.3966 44.1091 13.3142 44.1091 11.9947C44.1091 10.6751 43.0268 9.59277 41.7072 9.59277C40.3876 9.59277 39.3053 10.6751 39.3053 11.9947C39.3053 13.3291 40.3876 14.3966 41.7072 14.3966Z" fill="white"/>
<path d="M59.5732 107.196H5.97511C5.32274 107.196 4.80381 106.677 4.80381 106.025V20.2679C4.80381 19.6156 5.32274 19.0966 5.97511 19.0966H13.1215C13.7739 19.0966 14.2928 19.6304 14.2928 20.2679V23.8411C14.2928 25.1607 15.3752 26.243 16.6947 26.243H66.7196C68.0392 26.243 69.1215 25.1607 69.1215 23.8411V20.2679C69.1215 19.6156 69.6404 19.0966 70.2928 19.0966H77.4392C78.0916 19.0966 78.6105 19.6304 78.6105 20.2679V48.8536C78.6105 50.1732 79.6929 51.2555 81.0124 51.2555C82.332 51.2555 83.4143 50.1732 83.4143 48.8536V20.2679C83.4143 16.9764 80.7307 14.2928 77.4392 14.2928H70.2928C69.6404 14.2928 69.1215 13.7739 69.1215 13.1215V9.54832C69.1215 8.22875 68.0392 7.14641 66.7196 7.14641H54.0429C53.6277 7.14641 53.2423 6.92401 53.0347 6.56818C50.6773 2.52052 46.3479 0 41.7072 0C37.0665 0 32.7223 2.52052 30.3945 6.55335C30.1869 6.90919 29.8014 7.14641 29.3863 7.14641H16.7096C15.39 7.14641 14.3077 8.22875 14.3077 9.54832V13.1215C14.3077 13.7739 13.7887 14.2928 13.1364 14.2928H5.97511C2.68361 14.2928 0 16.9764 0 20.2679V106.025C0 109.316 2.68361 112 5.97511 112H59.5732C60.8928 112 61.9751 110.918 61.9751 109.598C61.9751 108.279 60.8928 107.196 59.5732 107.196ZM19.0966 13.1215C19.0966 12.4692 19.6156 11.9502 20.2679 11.9502H31.6399C32.6481 11.9502 33.5674 11.3127 33.8936 10.349C35.0649 7.0278 38.2081 4.80381 41.6923 4.80381C45.1766 4.80381 48.305 7.0278 49.4911 10.349C49.8321 11.2979 50.7366 11.9502 51.7596 11.9502H63.1316C63.784 11.9502 64.3029 12.4692 64.3029 13.1215V20.2679C64.3029 20.9203 63.784 21.4392 63.1316 21.4392H20.2679C19.6156 21.4392 19.0966 20.9203 19.0966 20.2679V13.1215Z" fill="white"/>
<path d="M69.1216 45.2804C69.1216 43.9608 68.0392 42.8785 66.7197 42.8785H45.2804C43.9609 42.8785 42.8785 43.9608 42.8785 45.2804C42.8785 46.6 43.9609 47.6823 45.2804 47.6823H66.7197C68.0392 47.6823 69.1216 46.6 69.1216 45.2804Z" fill="white"/>
<path d="M54.8288 66.7197C54.8288 65.4001 53.7464 64.3177 52.4269 64.3177H45.2804C43.9609 64.3177 42.8785 65.4001 42.8785 66.7197C42.8785 68.0392 43.9609 69.1216 45.2804 69.1216H52.4269C53.7464 69.1216 54.8288 68.0392 54.8288 66.7197Z" fill="white"/>
<path d="M45.2804 85.757C43.9609 85.757 42.8785 86.8393 42.8785 88.1589C42.8785 89.4784 43.9609 90.5608 45.2804 90.5608H48.8537C50.1732 90.5608 51.2556 89.4784 51.2556 88.1589C51.2556 86.8393 50.1732 85.757 48.8537 85.757H45.2804Z" fill="white"/>
<path d="M35.9989 36.2065C35.5837 35.8951 35.0796 35.7321 34.5607 35.7321C33.7897 35.7321 33.0929 36.0731 32.6333 36.6958L24.3897 47.6971C24.1821 47.964 23.8707 48.1419 23.5297 48.1716C23.5001 48.1716 23.4704 48.1716 23.4408 48.1716C23.1294 48.1716 22.8329 48.0529 22.6105 47.8305L18.3849 43.5901C17.9253 43.1305 17.3322 42.8933 16.6798 42.8933C16.0275 42.8933 15.4344 43.1453 14.9896 43.5901C14.0555 44.5242 14.0555 46.0514 14.9896 46.9854L22.0471 54.0429C22.1064 54.0725 22.1953 54.1318 22.2843 54.2208C22.3584 54.2801 22.4029 54.3394 22.4474 54.3839C22.477 54.3987 22.5067 54.4136 22.5364 54.4136C22.6105 54.4432 22.6846 54.4729 22.7587 54.5173C22.8181 54.547 22.8774 54.5766 22.9515 54.6211C22.9811 54.6359 22.996 54.6508 23.0108 54.6508C23.3073 54.7694 23.589 54.8139 23.8263 54.8139C24.1228 54.8139 24.4638 54.7397 24.7752 54.5915C24.8048 54.5766 24.8196 54.5618 24.8493 54.5322C24.9234 54.4729 24.9976 54.4284 25.0865 54.3691C25.1607 54.3246 25.2496 54.2653 25.3237 54.2208C25.3682 54.1912 25.4275 54.1615 25.472 54.1318C25.5165 54.0725 25.561 53.9984 25.6351 53.9094C25.7092 53.8353 25.7834 53.7612 25.8427 53.7167L36.4733 39.5425C36.8588 39.0236 37.0219 38.4008 36.933 37.7633C36.844 37.1554 36.5178 36.592 35.9989 36.2065Z" fill="white"/>
<path d="M35.9989 57.6458C35.5838 57.3344 35.0797 57.1713 34.5608 57.1713C33.7898 57.1713 33.0929 57.5272 32.6333 58.1351L24.3897 69.1364C24.1822 69.4033 23.8708 69.5812 23.5298 69.596C23.5001 69.596 23.4705 69.596 23.4408 69.596C23.1295 69.596 22.8329 69.4774 22.6105 69.255L18.3701 65.0146C17.9105 64.555 17.3174 64.3177 16.6651 64.3177C16.0275 64.3177 15.4196 64.5698 14.9748 65.0146C14.0408 65.9487 14.0408 67.4758 14.9748 68.4099L22.0471 75.4673C22.1064 75.497 22.1954 75.5563 22.2844 75.6452C22.3585 75.7046 22.403 75.7639 22.4474 75.8083C22.4771 75.8232 22.5068 75.838 22.5364 75.838C22.6105 75.8676 22.6847 75.8973 22.7588 75.9418C22.8181 75.9714 22.8774 76.0011 22.9515 76.0456C22.9812 76.0604 22.996 76.0752 23.0109 76.0752C23.3074 76.1938 23.5891 76.2383 23.8263 76.2383C24.1377 76.2383 24.4639 76.1642 24.7752 76.0159C24.8049 76.0011 24.8197 75.9863 24.8494 75.9566C24.9235 75.8973 24.9976 75.8528 25.0866 75.7935C25.1607 75.749 25.2497 75.6897 25.3238 75.6452C25.3683 75.6156 25.4276 75.5859 25.4721 75.5563C25.5017 75.497 25.561 75.4228 25.6352 75.3339C25.7093 75.2598 25.7834 75.1856 25.8427 75.1411L36.4734 60.9669C36.8589 60.4628 37.022 59.8253 36.933 59.1877C36.8441 58.5947 36.5179 58.0313 35.9989 57.6458Z" fill="white"/>
<path d="M34.5607 78.6105C33.7897 78.6105 33.0929 78.9664 32.6333 79.5743L24.3897 90.5756C24.1821 90.8425 23.8707 91.0204 23.5297 91.05C23.5001 91.05 23.4704 91.05 23.4408 91.05C23.1294 91.05 22.8329 90.9314 22.6105 90.709L18.3701 86.4686C17.9253 86.009 17.3174 85.7718 16.6798 85.7718C16.0423 85.7718 15.4344 86.0238 14.9896 86.4686C14.0555 87.4027 14.0555 88.9298 14.9896 89.8639L22.0471 96.9214C22.1064 96.951 22.1953 97.0103 22.2843 97.0993C22.3436 97.1586 22.4029 97.2179 22.4474 97.2624C22.477 97.2772 22.5067 97.292 22.5364 97.3068C22.6105 97.3365 22.6846 97.3661 22.7587 97.4106C22.8181 97.4403 22.8922 97.4699 22.9515 97.5144C22.9811 97.5292 22.996 97.5441 23.0108 97.5441C23.3073 97.6627 23.589 97.7072 23.8263 97.7072C24.1228 97.7072 24.449 97.633 24.7752 97.4848C24.8048 97.4699 24.8196 97.4551 24.8493 97.4255C24.9234 97.3662 24.9976 97.3217 25.0865 97.2624C25.1607 97.2179 25.2496 97.1586 25.3237 97.1141C25.3682 97.0844 25.4275 97.0548 25.472 97.0251C25.5017 96.9658 25.561 96.8769 25.6351 96.8027C25.7092 96.7286 25.7834 96.6545 25.8427 96.61L36.4733 82.4358C36.8588 81.9169 37.0219 81.2941 36.933 80.6566C36.844 80.0191 36.503 79.4557 35.9989 79.0702C35.5837 78.7736 35.0796 78.6105 34.5607 78.6105Z" fill="white"/>
<path d="M84.5857 57.1713C69.4626 57.1713 57.1714 69.4626 57.1714 84.5857C57.1714 99.7088 69.4626 112 84.5857 112C99.694 112 112 99.7088 112 84.5857C112 69.4626 99.694 57.1713 84.5857 57.1713ZM84.5857 107.196C72.1166 107.196 61.9752 97.0548 61.9752 84.5857C61.9752 72.1165 72.1166 61.9751 84.5857 61.9751C97.0549 61.9751 107.196 72.1165 107.196 84.5857C107.196 97.0548 97.0549 107.196 84.5857 107.196Z" fill="white"/>
<path d="M93.5113 75.0374C92.7403 75.0374 92.0434 75.3932 91.5838 76.0011L83.3402 87.0024C83.1327 87.2693 82.8213 87.4472 82.4803 87.4769C82.4506 87.4769 82.421 87.4769 82.3913 87.4769C82.08 87.4769 81.7834 87.3582 81.561 87.1358L77.3206 82.9103C76.8758 82.4506 76.268 82.1986 75.6304 82.1986C74.9929 82.1986 74.385 82.4506 73.9402 82.9103C73.0061 83.8443 73.0061 85.3715 73.9402 86.3056L80.9976 93.363C81.0569 93.3927 81.1459 93.452 81.2349 93.5409C81.2942 93.6002 81.3535 93.6595 81.398 93.704C81.4276 93.7188 81.4573 93.7337 81.4869 93.7485C81.561 93.7782 81.6352 93.8078 81.7093 93.8523C81.7686 93.8819 81.8428 93.9264 81.9021 93.9561C81.9317 93.9709 81.9465 93.9857 81.9614 93.9857C82.2579 94.1043 82.5396 94.1488 82.7768 94.1488C83.0734 94.1488 83.3995 94.0747 83.7257 93.9264C83.7554 93.9116 83.7702 93.8968 83.7999 93.8671C83.874 93.8078 83.9481 93.7633 84.0371 93.704C84.1112 93.6447 84.2002 93.6002 84.2743 93.5558C84.3188 93.5261 84.3781 93.4965 84.4226 93.4668C84.4522 93.4075 84.5115 93.3185 84.5857 93.2444C84.6598 93.1703 84.7339 93.0961 84.7932 93.0516L95.4239 78.8774C95.8094 78.3585 95.9725 77.7358 95.8835 77.0982C95.7946 76.4607 95.4536 75.8973 94.9494 75.5118C94.5343 75.2004 94.045 75.0374 93.5113 75.0374Z" fill="white"/>
</g>
<defs>
<clipPath id="clip0">
<rect width="112" height="112" fill="white"/>
</clipPath>
</defs>
</svg>
