<svg width="303" height="92" viewBox="0 0 303 92" fill="none" xmlns="http://www.w3.org/2000/svg">
<g clip-path="url(#clip0)">
<path d="M86.59 92C84.3231 92 82.0562 91.9279 79.7893 91.7692C51.6479 89.836 26.4087 76.4911 10.5115 55.1683C9.19758 53.4082 9.57299 50.9268 11.3201 49.6139C13.0672 48.3011 15.5651 48.6617 16.8791 50.4218C31.3757 69.8836 54.5068 82.0743 80.3235 83.8488C107.122 85.681 133.17 75.6544 149.977 57.0149C151.449 55.3847 153.962 55.2548 155.579 56.7264C157.211 58.1979 157.341 60.7082 155.868 62.324C138.888 81.1799 113.36 92 86.59 92Z" fill="white"/>
<path d="M4.46156 62.2951C4.05727 62.2951 3.65298 62.122 3.37864 61.8046C-1.58833 56.106 -0.99634 47.4355 4.70702 42.4726C10.4104 37.5098 19.0881 38.1013 24.0551 43.7999C24.5749 44.4058 24.5172 45.3147 23.9107 45.8341C23.3043 46.3535 22.3946 46.2958 21.8748 45.6898C17.9475 41.2031 11.1034 40.727 6.61295 44.6367C4.43268 46.541 3.11874 49.1667 2.93104 52.0521C2.72889 54.9374 3.66742 57.7218 5.57335 59.9003C6.09315 60.5062 6.0354 61.4151 5.42896 61.9345C5.12575 62.1797 4.79365 62.2951 4.46156 62.2951Z" fill="white"/>
<path d="M63.791 62.5115H47.966C42.7969 62.5115 38.5952 58.6307 38.5952 53.8698V15.783C38.5952 13.5901 40.3711 11.8156 42.5658 11.8156C44.7606 11.8156 46.5365 13.5901 46.5365 15.783V53.8698C46.5365 54.043 47.0419 54.5768 47.966 54.5768H63.791C65.9857 54.5768 67.7617 56.3513 67.7617 58.5441C67.7617 60.737 65.9857 62.5115 63.791 62.5115Z" fill="white"/>
<path d="M61.553 7.93477C61.2931 7.93477 61.0332 7.90592 60.7733 7.84821C60.5278 7.80493 60.2823 7.71837 60.0369 7.61738C59.7914 7.51639 59.5604 7.40098 59.3438 7.25671C59.1272 7.11244 58.9251 6.95375 58.7518 6.7662C58.5641 6.57865 58.3909 6.37667 58.2465 6.16027C58.1165 5.94387 57.9866 5.71304 57.8855 5.48221C57.7844 5.23695 57.7122 4.99169 57.6545 4.73201C57.6112 4.47233 57.5823 4.21265 57.5823 3.95296C57.5823 2.91423 58.001 1.88992 58.7518 1.15415C58.9251 0.966604 59.1272 0.807909 59.3438 0.663641C59.5604 0.519372 59.7914 0.38953 60.0369 0.302969C60.2823 0.201981 60.5278 0.11542 60.7733 0.0721399C61.2931 -0.0288481 61.8129 -0.0288481 62.3327 0.0721399C62.5781 0.11542 62.8236 0.201981 63.0691 0.302969C63.3145 0.38953 63.5455 0.519372 63.7621 0.663641C63.9787 0.807909 64.1808 0.966604 64.3541 1.15415C65.1049 1.88992 65.5237 2.91423 65.5237 3.95296C65.5237 4.99169 65.1049 6.016 64.3541 6.7662C64.1808 6.95375 63.9787 7.11244 63.7621 7.25671C63.5455 7.40098 63.3145 7.51639 63.0691 7.61738C62.8236 7.71837 62.5781 7.80493 62.3327 7.84821C62.0728 7.90592 61.8129 7.93477 61.553 7.93477Z" fill="white"/>
<path d="M61.553 46.0216C59.3583 46.0216 57.5823 44.2471 57.5823 42.0543V15.7974C57.5823 13.6045 59.3583 11.83 61.553 11.83C63.7477 11.83 65.5237 13.6045 65.5237 15.7974V42.0543C65.5237 44.2471 63.7477 46.0216 61.553 46.0216Z" fill="white"/>
<path d="M90.965 56.9139C89.4633 56.9139 88.0194 56.0627 87.3552 54.6056L73.6239 24.843C72.6998 22.8521 73.5806 20.5006 75.5731 19.5772C77.5657 18.6539 79.9192 19.534 80.8433 21.5249L94.5747 51.2874C95.4988 53.2784 94.618 55.6299 92.6254 56.5532C92.0912 56.7985 91.5281 56.9139 90.965 56.9139Z" fill="white"/>
<path d="M90.965 56.9139C90.4163 56.9139 89.8387 56.7985 89.3045 56.5532C87.3119 55.6299 86.4456 53.2784 87.3552 51.2874L101.087 21.5249C102.011 19.534 104.364 18.6683 106.357 19.5772C108.349 20.5006 109.216 22.8521 108.306 24.843L94.5747 54.6056C93.8961 56.0627 92.4666 56.9139 90.965 56.9139Z" fill="white"/>
<path d="M134.643 53.7689C122.99 53.7689 113.519 44.3048 113.519 32.6624C113.519 21.0199 123.005 11.5559 134.643 11.5559C146.28 11.5559 155.767 21.0199 155.767 32.6624C155.767 34.8553 153.991 36.6298 151.796 36.6298H131.437C129.242 36.6298 127.466 34.8553 127.466 32.6624C127.466 30.4695 129.242 28.695 131.437 28.695H147.219C145.53 23.3715 140.534 19.4907 134.643 19.4907C127.365 19.4907 121.46 25.4057 121.46 32.6624C121.46 39.9335 127.38 45.8341 134.643 45.8341C136.837 45.8341 138.613 47.6086 138.613 49.8015C138.613 51.9944 136.837 53.7689 134.643 53.7689Z" fill="white"/>
<path d="M173.989 52.1819C171.924 52.0521 170.22 51.8789 168.877 51.6481L169.224 49.4985C172.357 49.7293 175.952 49.8447 180.024 49.8447C182.724 49.8447 184.832 49.4264 186.348 48.5752C187.864 47.724 188.803 46.1371 189.164 43.7855L189.554 41.1021C189.655 40.5539 189.698 40.0345 189.698 39.544C189.698 38.1157 189.265 37.077 188.399 36.4134C187.532 35.7497 186.161 35.4323 184.269 35.4323H179.49C174.768 35.4323 172.4 33.4847 172.4 29.575C172.4 28.9835 172.444 28.3487 172.545 27.6707L172.978 24.4968C173.498 21.2796 174.667 19.0434 176.501 17.8171C178.32 16.5764 180.847 15.9561 184.067 15.9561C185.309 15.9561 187.041 16.0426 189.265 16.2302C191.488 16.4033 193.25 16.6197 194.521 16.8361L194.232 18.9857C192.73 18.8559 190.998 18.7549 189.034 18.6972C187.07 18.6395 185.366 18.5962 183.937 18.5962C181.396 18.5962 179.49 19.029 178.205 19.8946C176.92 20.7602 176.097 22.376 175.736 24.7565L175.302 27.4399C175.23 28.2189 175.201 28.7383 175.201 28.998C175.201 30.3685 175.591 31.3207 176.342 31.8833C177.107 32.4315 178.335 32.7201 180.024 32.7201H184.904C189.958 32.7201 192.47 34.7831 192.47 38.9236C192.47 39.5151 192.427 40.1788 192.326 40.929L191.792 44.2038C191.33 47.2623 190.102 49.3975 188.11 50.5949C186.103 51.7924 183.359 52.3983 179.88 52.3983C178.017 52.3839 176.053 52.3117 173.989 52.1819Z" fill="white"/>
<path d="M199.387 50.2054C197.943 48.7627 197.221 46.5699 197.221 43.6412C197.221 42.2418 197.38 40.5972 197.712 38.7072C198.39 34.2205 199.776 30.9456 201.841 28.8681C203.906 26.8051 206.967 25.7664 210.995 25.7664C212.786 25.7664 214.576 25.9972 216.367 26.4733C218.157 26.9494 219.572 27.6563 220.612 28.594L216.901 52.0665H214.562L214.519 49.2388C213.638 49.888 212.252 50.5661 210.346 51.2874C208.44 52.0088 206.693 52.355 205.09 52.355C202.722 52.3839 200.83 51.6625 199.387 50.2054ZM210.245 49.3398C211.544 48.907 213.06 48.2578 214.793 47.4066L217.58 29.7914C216.901 29.4019 215.948 29.0412 214.75 28.695C213.551 28.3488 212.223 28.1756 210.793 28.1756C208.541 28.1756 206.75 28.5652 205.393 29.3154C204.036 30.08 202.996 31.2486 202.245 32.8355C201.495 34.408 200.888 36.5432 200.441 39.1978C200.181 41.0877 200.051 42.4294 200.051 43.2517C200.051 45.5023 200.585 47.1758 201.639 48.3011C202.693 49.4264 204.151 49.989 206.014 49.989C207.53 49.989 208.945 49.7726 210.245 49.3398Z" fill="white"/>
<path d="M226.777 50.7969C225.622 49.7438 225.044 48.2722 225.044 46.3823C225.044 45.5744 225.102 44.68 225.247 43.6989L228.077 26.0837H230.907L228.12 43.6556C228.019 44.1462 227.976 44.7232 227.976 45.4157C227.976 48.3732 229.665 49.8592 233.058 49.8592C234.791 49.8592 236.365 49.6428 237.794 49.1956C239.223 48.7483 240.855 48.0558 242.674 47.0748L246.039 26.0982H248.869L244.71 52.1098H242.414L242.371 49.1811C240.61 50.2487 238.935 51.0566 237.317 51.5904C235.7 52.1242 233.881 52.3983 231.816 52.3983C229.622 52.3839 227.932 51.8501 226.777 50.7969ZM244.537 14.7154H247.121L239.945 21.3085H238.184L244.537 14.7154Z" fill="white"/>
<path d="M254.702 50.1622C253.301 48.6762 252.594 46.5699 252.594 43.8432C252.594 42.0543 252.753 40.2942 253.085 38.5774C253.633 35.7209 254.355 33.3693 255.236 31.5515C256.117 29.7338 257.431 28.3199 259.164 27.3101C260.911 26.3002 263.221 25.7952 266.123 25.7952C268.895 25.7952 271.307 26.3146 273.357 27.3533L275.364 14.8597H278.194L272.288 52.0954H269.949V49.2677C268.578 50.1478 267.062 50.8835 265.387 51.4894C263.712 52.0954 262.008 52.3983 260.275 52.3983C257.951 52.3839 256.088 51.6481 254.702 50.1622ZM265.661 49.311C267.105 48.8493 268.621 48.2146 270.18 47.4067L272.967 29.7915C271.956 29.2432 270.917 28.8249 269.848 28.5652C268.78 28.3055 267.538 28.1757 266.138 28.1757C263.885 28.1757 262.095 28.5652 260.766 29.3154C259.438 30.08 258.398 31.2342 257.691 32.7778C256.969 34.3215 256.377 36.4422 255.886 39.1545C255.597 40.7126 255.453 42.0976 255.453 43.3094C255.453 45.6177 255.987 47.3057 257.041 48.3877C258.095 49.4697 259.481 50.0035 261.171 50.0035C262.701 49.9891 264.203 49.7727 265.661 49.311Z" fill="white"/>
<path d="M282.786 50.1622C281.096 48.6762 280.244 46.44 280.244 43.4537C280.244 41.6359 280.403 39.746 280.735 37.7983C281.356 33.8021 282.713 30.7725 284.807 28.7239C286.915 26.6752 289.933 25.6509 293.875 25.6509C296.806 25.6509 299.058 26.1847 300.632 27.2667C302.206 28.3488 303 30.1088 303 32.5903C303 38.2167 298.842 41.03 290.539 41.03C289.009 41.03 287.579 40.9578 286.236 40.8136C284.894 40.6693 283.897 40.4817 283.204 40.2509C283.074 41.2608 283.017 42.3861 283.017 43.6124C283.017 45.8918 283.695 47.5509 285.038 48.5896C286.381 49.6284 288.604 50.1477 291.709 50.1477H299.477L299.188 51.9078C296.026 52.2396 293.268 52.3983 290.886 52.3983C287.175 52.3839 284.475 51.6481 282.786 50.1622ZM297.455 37.7695C299.333 36.8462 300.257 35.2015 300.257 32.8644C300.257 31.1043 299.722 29.8492 298.639 29.0845C297.571 28.3199 295.911 27.9448 293.658 27.9448C290.409 27.9448 288.012 28.8248 286.482 30.5849C284.951 32.345 283.926 35.0284 283.406 38.6351C285.327 38.9958 287.319 39.1689 289.37 39.1689C292.893 39.1545 295.578 38.6928 297.455 37.7695Z" fill="white"/>
</g>
<defs>
<clipPath id="clip0">
<rect width="303" height="92" fill="white"/>
</clipPath>
</defs>
</svg>
